<svg width="16" height="16" viewBox="0 0 16 16" fill="none" xmlns="http://www.w3.org/2000/svg">
<g id="Outlined/Download">
<path id="Vector (Stroke)" fill-rule="evenodd" clip-rule="evenodd" d="M7.99967 1.33398C8.36787 1.33398 8.66634 1.63246 8.66634 2.00065V8.39118L10.1949 6.86258C10.4553 6.60223 10.8774 6.60223 11.1377 6.86258C11.3981 7.12293 11.3981 7.54504 11.1377 7.80539L8.47108 10.4721C8.21073 10.7324 7.78862 10.7324 7.52827 10.4721L4.8616 7.80539C4.60125 7.54504 4.60125 7.12293 4.8616 6.86258C5.12195 6.60223 5.54406 6.60223 5.80441 6.86258L7.33301 8.39118V2.00065C7.33301 1.63246 7.63148 1.33398 7.99967 1.33398ZM1.99967 9.33398C2.36786 9.33398 2.66634 9.63246 2.66634 10.0007V11.334C2.66634 11.7022 2.96481 12.0007 3.33301 12.0007H12.6663C13.0346 12.0007 13.333 11.7022 13.333 11.334V10.0007C13.333 9.63246 13.6315 9.33398 13.9997 9.33398C14.3679 9.33398 14.6663 9.63246 14.6663 10.0007V11.334C14.6663 12.4386 13.7709 13.334 12.6663 13.334H3.33301C2.22844 13.334 1.33301 12.4386 1.33301 11.334V10.0007C1.33301 9.63246 1.63148 9.33398 1.99967 9.33398Z" fill="black"/>
</g>
</svg>
