<svg width="192" height="96" viewBox="0 0 192 96" fill="none" xmlns="http://www.w3.org/2000/svg">
<path fill-rule="evenodd" clip-rule="evenodd" d="M0.421754 65.7845C3.22854 24.6186 22.9629 -15.2751 58.3536 -42.3899C93.7435 -69.5041 137.398 -78.1761 177.876 -70.1737C185.065 -68.7524 189.741 -61.7722 188.32 -54.5829C186.899 -47.3937 179.918 -42.7178 172.729 -44.1391C139.368 -50.7345 103.544 -43.5804 74.4937 -21.3236C45.4428 0.933917 29.212 33.6624 26.8988 67.5897C26.4003 74.9011 20.0691 80.4241 12.7576 79.9256C5.44621 79.4271 -0.0767539 73.0959 0.421754 65.7845ZM57.8148 158.562C16.5984 104.766 26.779 27.7574 80.5536 -13.4425C134.329 -54.6428 211.334 -44.4322 252.551 9.3642C269.26 31.1741 265.129 62.3993 243.325 79.1041C221.521 95.8099 190.297 91.6718 173.588 69.8621C165.789 59.6826 151.222 57.758 141.056 65.5464C130.892 73.334 128.959 87.9001 136.758 98.0796C157.706 125.421 190.46 138.398 222.442 135.313C229.736 134.609 236.22 139.952 236.924 147.246C237.627 154.541 232.285 161.025 224.99 161.728C184.281 165.656 142.444 149.138 115.692 114.22C98.982 92.41 103.113 61.185 124.916 44.4801C146.721 27.7743 177.944 31.9124 194.654 53.722C202.453 63.9016 217.02 65.8262 227.185 58.0378C237.35 50.25 239.283 35.6836 231.484 25.5043C199.176 -16.665 138.827 -24.6569 96.6937 7.62383C54.5613 39.9039 46.5727 100.253 78.8811 142.422C86.4709 152.329 94.9796 161.138 104.171 168.899C109.77 173.627 110.477 181.999 105.749 187.598C101.021 193.198 92.6491 193.904 87.0498 189.176C76.4583 180.233 66.6137 170.047 57.8148 158.562ZM118.854 36.602C92.7058 56.6354 87.7476 94.089 107.802 120.264C125.011 142.726 147.972 158.111 173.049 166.029C180.037 168.235 183.914 175.689 181.708 182.677C179.501 189.665 172.047 193.542 165.059 191.336C134.973 181.837 107.377 163.346 86.7357 136.404C57.7742 98.6035 64.9222 44.4899 102.714 15.5357C140.505 -13.4183 194.614 -6.2367 223.575 31.5641C228.032 37.3814 226.929 45.7103 221.112 50.1673C215.295 54.6243 206.966 53.5215 202.509 47.7042C182.454 21.5287 145.001 16.5691 118.854 36.602ZM147.107 73.4365C152.924 68.9795 161.253 70.0823 165.71 75.8996C185.764 102.075 223.218 107.035 249.365 87.0022C249.764 86.6967 250.01 86.4795 250.465 86.0784C250.774 85.8062 251.178 85.4492 251.792 84.9225C257.353 80.1497 265.731 80.7888 270.503 86.3499C275.276 91.911 274.637 100.288 269.076 105.061C268.981 105.143 268.839 105.267 268.662 105.423C267.947 106.052 266.655 107.188 265.505 108.069C227.714 137.023 173.605 129.84 144.643 92.0397C140.186 86.2224 141.289 77.8934 147.107 73.4365Z" fill="#D9E9EB"/>
</svg>
