<svg xmlns="http://www.w3.org/2000/svg" width="336" height="8" viewBox="0 0 336 8" fill="none">
  <path d="M1.07142 5.39335C1.55962 6.33746 2.15025 7.05642 2.80083 7.49777C3.4514 7.93912 4.14583 8.09254 4.83398 7.94631C7.94068 7.69623 328.143 7.22801 331.193 6.77634L333.309 6.46557C333.884 6.43832 334.451 6.1555 334.964 5.6377C335.236 5.32877 336.145 3.91843 335.98 2.91277C335.732 1.79242 335.293 0.878293 334.737 0.323652C334.379 0.0288708 333.986 -0.0672374 333.599 0.0463947C333.496 0.0578279 333.394 0.0685605 333.296 0.0706634C332.296 0.0937093 331.295 0.110731 330.294 0.122177C327.434 0.162738 7.42725 0.205931 4.51951 0.449655C3.61716 0.616303 2.72887 1.01819 1.87849 1.6452C1.40325 1.94381 0.912164 2.25218 0.367475 2.53839L0 2.73022L0.211302 3.34091C0.462542 4.0791 0.750794 4.76688 1.07142 5.39335Z" fill="#F79F79"/>
</svg>