<svg width="20" height="20" viewBox="0 0 20 20" fill="none" xmlns="http://www.w3.org/2000/svg">
<path d="M17.0709 2.92906C13.1655 -0.976367 6.83363 -0.976367 2.92902 2.92914C-0.976367 6.83453 -0.976367 13.1664 2.92918 17.071C6.83363 20.9764 13.1655 20.9764 17.0709 17.0709C20.9764 13.1664 20.9764 6.83453 17.0709 2.92906ZM15.8925 15.8923C12.6379 19.1469 7.3614 19.1469 4.10769 15.8925C0.853085 12.6386 0.853085 7.36214 4.10761 4.10761C7.3614 0.853046 12.6379 0.853046 15.8924 4.10761C19.1469 7.36218 19.1469 12.6386 15.8925 15.8923Z" fill="#2F591B"/>
<path d="M14.4107 6.24407L9.16665 11.4881L6.42259 8.74407C6.09716 8.41864 5.5695 8.41864 5.24407 8.74407C4.91864 9.0695 4.91864 9.59716 5.24407 9.92259L8.57739 13.2559C8.90282 13.5813 9.43048 13.5813 9.75591 13.2559L15.5892 7.42259C15.9147 7.09716 15.9147 6.5695 15.5892 6.24407C15.2638 5.91864 14.7361 5.91864 14.4107 6.24407Z" fill="#2F591B"/>
</svg>
