<svg width="16" height="16" viewBox="0 0 16 16" fill="none" xmlns="http://www.w3.org/2000/svg">
<g id="Outlined/New tab">
<path id="Vector" fill-rule="evenodd" clip-rule="evenodd" d="M3.8 2H5C5.33137 2 5.6 2.26863 5.6 2.6C5.6 2.9077 5.36838 3.1613 5.06997 3.19596L5 3.2H3.8C3.4923 3.2 3.2387 3.43162 3.20404 3.73003L3.2 3.8V12.2C3.2 12.5077 3.43162 12.7613 3.73003 12.796L3.8 12.8H12.2C12.5077 12.8 12.7613 12.5684 12.796 12.27L12.8 12.2V11C12.8 10.6686 13.0686 10.4 13.4 10.4C13.7077 10.4 13.9613 10.6316 13.996 10.93L14 11V12.2C14 13.1586 13.2506 13.9422 12.3058 13.9969L12.2 14H3.8C2.84139 14 2.0578 13.2506 2.00306 12.3058L2 12.2V3.8C2 2.84139 2.74935 2.0578 3.69424 2.00306L3.8 2ZM13.4 2L13.4486 2.0018L13.5204 2.01214L13.5873 2.02984L13.6539 2.0562L13.7124 2.0876L13.7701 2.12767L13.8243 2.17574L13.8822 2.24282L13.9252 2.30956L13.9438 2.34614L13.9641 2.39501L13.9785 2.4404L13.9959 2.52914L14 2.6V6.2C14 6.53137 13.7314 6.8 13.4 6.8C13.0686 6.8 12.8 6.53137 12.8 6.2V4.0484L9.02426 7.82426C8.80797 8.04055 8.46764 8.05719 8.23226 7.87418L8.17574 7.82426C7.95945 7.60797 7.94281 7.26763 8.12582 7.03226L8.17574 6.97574L11.9504 3.2H9.8C9.46863 3.2 9.2 2.93137 9.2 2.6C9.2 2.26863 9.46863 2 9.8 2H13.4Z" fill="#444444"/>
</g>
</svg>
