<svg width="24" height="24" viewBox="0 0 24 24" fill="none" xmlns="http://www.w3.org/2000/svg">
<g id="Filled/PDF">
<path id="Vector" d="M18.0749 1.55469L22.2479 5.90469V22.4467H6.65918V22.5007H22.3012V5.95944L18.0749 1.55469Z" fill="#909090"/>
<path id="Vector_2" d="M18.0232 1.5H6.60596V22.446H22.248V5.90475L18.0232 1.5Z" fill="#F4F4F4"/>
<path id="Vector_3" d="M6.49123 2.625H1.69873V7.74525H16.7737V2.625H6.49123Z" fill="#7A7B7C"/>
<path id="Vector_4" d="M16.8541 7.65916H1.79639V2.53516H16.8541V7.65916Z" fill="#DD2025"/>
<path id="Vector_5" d="M6.78884 3.40039H6.76634H6.61109H5.80859V7.00039H6.57959V5.78614L6.74984 5.79589C6.91527 5.79304 7.07915 5.76341 7.23509 5.70814C7.37182 5.66111 7.4976 5.58687 7.60484 5.48989C7.71397 5.39751 7.8 5.28091 7.85609 5.14939C7.93132 4.93076 7.95818 4.69841 7.93484 4.46839C7.93016 4.30407 7.90135 4.14133 7.84934 3.98539C7.802 3.87282 7.73174 3.77134 7.64303 3.68741C7.55432 3.60348 7.44911 3.53894 7.33409 3.49789C7.23465 3.46189 7.13191 3.43576 7.02734 3.41989C6.94816 3.40767 6.86821 3.40116 6.78809 3.40039M6.64634 5.12089H6.57959V4.01089H6.72434C6.78823 4.00628 6.85233 4.01609 6.91192 4.03959C6.9715 4.06308 7.02505 4.09967 7.06859 4.14664C7.15883 4.2674 7.20704 4.41439 7.20584 4.56514C7.20584 4.74964 7.20584 4.91689 7.03934 5.03464C6.91939 5.10061 6.78286 5.13107 6.64634 5.12089Z" fill="#464648"/>
<path id="Vector_6" d="M9.39979 3.39028C9.31654 3.39028 9.23554 3.39628 9.17854 3.39853L9.00004 3.40303H8.41504V7.00303H9.10354C9.36666 7.01024 9.62863 6.96564 9.87454 6.87178C10.0725 6.79327 10.2477 6.66671 10.3845 6.50353C10.5176 6.33887 10.613 6.14716 10.6643 5.94178C10.7232 5.70918 10.7519 5.46996 10.7498 5.23003C10.7643 4.94665 10.7424 4.66257 10.6845 4.38478C10.6296 4.1803 10.5268 3.99185 10.3845 3.83503C10.2729 3.7084 10.1363 3.60626 9.98329 3.53503C9.85187 3.47422 9.71364 3.42939 9.57154 3.40153C9.51503 3.39219 9.45781 3.38793 9.40054 3.38878M9.26404 6.34153H9.18904V4.04353H9.19879C9.35341 4.02574 9.50985 4.05364 9.64879 4.12378C9.75054 4.20502 9.83344 4.30738 9.89179 4.42378C9.95476 4.54628 9.99105 4.68073 9.99829 4.81828C10.005 4.98328 9.99829 5.11828 9.99829 5.23003C10.0013 5.35876 9.99306 5.4875 9.97354 5.61478C9.95042 5.74545 9.90769 5.87188 9.84679 5.98978C9.77786 6.09939 9.68472 6.19176 9.57454 6.25978C9.48201 6.31963 9.37243 6.34755 9.26254 6.33928" fill="#464648"/>
<path id="Vector_7" d="M13.0725 3.4043H11.25V7.0043H12.021V5.5763H12.996V4.9073H12.021V4.0733H13.071V3.4043" fill="#464648"/>
<path id="Vector_8" d="M16.3355 15.1921C16.3355 15.1921 18.7265 14.7586 18.7265 15.5754C18.7265 16.3921 17.2453 16.0599 16.3355 15.1921ZM14.5678 15.2544C14.1879 15.3383 13.8177 15.4612 13.463 15.6211L13.763 14.9461C14.063 14.2711 14.3743 13.3509 14.3743 13.3509C14.7323 13.9534 15.1488 14.5191 15.6178 15.0399C15.2641 15.0926 14.9136 15.1647 14.5678 15.2559V15.2544ZM13.6213 10.3794C13.6213 9.66761 13.8515 9.47336 14.0308 9.47336C14.21 9.47336 14.4118 9.55961 14.4185 10.1776C14.3601 10.799 14.23 11.4116 14.0308 12.0031C13.7579 11.5065 13.6166 10.9483 13.6205 10.3816L13.6213 10.3794ZM10.1345 18.2664C9.40102 17.8276 11.6728 16.4769 12.0845 16.4334C12.0823 16.4341 10.9025 18.7254 10.1345 18.2664ZM19.4248 15.6721C19.4173 15.5971 19.3498 14.7669 17.8723 14.8021C17.2564 14.7922 16.6409 14.8356 16.0325 14.9319C15.4432 14.3382 14.9357 13.6685 14.5235 12.9406C14.7832 12.1902 14.9404 11.4081 14.9908 10.6156C14.969 9.71561 14.7538 9.19961 14.0638 9.20711C13.3738 9.21461 13.2733 9.81836 13.364 10.7169C13.4529 11.3206 13.6206 11.9102 13.8628 12.4704C13.8628 12.4704 13.544 13.4626 13.1225 14.4496C12.701 15.4366 12.413 15.9541 12.413 15.9541C11.6801 16.1927 10.9901 16.5472 10.3693 17.0041C9.75127 17.5794 9.50002 18.0211 9.82552 18.4629C10.106 18.8439 11.0878 18.9301 11.9653 17.7804C12.4315 17.1865 12.8575 16.5621 13.2403 15.9114C13.2403 15.9114 14.5783 15.5446 14.9945 15.4441C15.4108 15.3436 15.914 15.2641 15.914 15.2641C15.914 15.2641 17.1358 16.4934 18.314 16.4499C19.4923 16.4064 19.4353 15.7456 19.4278 15.6736" fill="#DD2025"/>
<path id="Vector_9" d="M17.9653 1.55859V5.96334H22.1901L17.9653 1.55859Z" fill="#909090"/>
<path id="Vector_10" d="M18.0234 1.5V5.90475H22.2482L18.0234 1.5Z" fill="#F4F4F4"/>
<path id="Vector_11" d="M6.73123 3.3418H6.70873H6.55348H5.75098V6.9418H6.52498V5.7283L6.69598 5.73805C6.8614 5.7352 7.02528 5.70557 7.18123 5.6503C7.31794 5.60325 7.44372 5.52901 7.55098 5.43205C7.65928 5.33941 7.74453 5.22284 7.79998 5.09155C7.8752 4.87292 7.90207 4.64057 7.87873 4.41055C7.87404 4.24623 7.84523 4.08349 7.79323 3.92755C7.74588 3.81498 7.67562 3.7135 7.58691 3.62957C7.4982 3.54564 7.39299 3.48109 7.27798 3.44005C7.17808 3.4037 7.07482 3.37732 6.96973 3.3613C6.89055 3.34908 6.81059 3.34256 6.73048 3.3418M6.58873 5.0623H6.52198V3.9523H6.66748C6.73136 3.94769 6.79547 3.9575 6.85505 3.98099C6.91464 4.00449 6.96818 4.04108 7.01173 4.08805C7.10197 4.20881 7.15017 4.3558 7.14898 4.50655C7.14898 4.69105 7.14898 4.8583 6.98248 4.97605C6.86253 5.04202 6.72599 5.07172 6.58948 5.06155" fill="white"/>
<path id="Vector_12" d="M9.34188 3.33364C9.25863 3.33364 9.17763 3.33964 9.12063 3.34189L8.94437 3.34639H8.35938V6.94639H9.04788C9.31099 6.9536 9.57296 6.909 9.81888 6.81514C10.0168 6.73663 10.1921 6.61007 10.3289 6.44689C10.4619 6.28223 10.5574 6.09052 10.6086 5.88514C10.6675 5.65254 10.6963 5.41332 10.6941 5.17339C10.7087 4.89001 10.6867 4.60593 10.6289 4.32814C10.574 4.12366 10.4711 3.93521 10.3289 3.77839C10.2173 3.65176 10.0807 3.54961 9.92763 3.47839C9.79621 3.41758 9.65797 3.37275 9.51587 3.34489C9.45937 3.33555 9.40214 3.33129 9.34488 3.33214M9.20837 6.28489H9.13338V3.98689H9.14313C9.29774 3.9691 9.45419 3.997 9.59313 4.06714C9.69487 4.14838 9.77778 4.25074 9.83612 4.36714C9.89909 4.48964 9.93539 4.62409 9.94263 4.76164C9.94938 4.92664 9.94263 5.06164 9.94263 5.17339C9.94568 5.30212 9.9374 5.43086 9.91788 5.55814C9.89476 5.68881 9.85203 5.81524 9.79113 5.93314C9.72219 6.04275 9.62906 6.13512 9.51888 6.20314C9.42634 6.26299 9.31677 6.29091 9.20688 6.28264" fill="white"/>
<path id="Vector_13" d="M13.0149 3.3457H11.1924V6.9457H11.9634V5.5177H12.9384V4.8487H11.9634V4.0147H13.0134V3.3457" fill="white"/>
</g>
</svg>
