<svg width="100" height="43" viewBox="0 0 100 43" fill="none" xmlns="http://www.w3.org/2000/svg">
<g id="logo-colored">
<g id="text">
<path id="Subtract" fill-rule="evenodd" clip-rule="evenodd" d="M4.98873 35.0782C6.60609 36.126 8.47402 36.65 10.5925 36.65C12.711 36.65 14.5676 36.126 16.1621 35.0782C17.7795 34.0303 19.021 32.5952 19.8866 30.7728C20.7522 28.9505 21.185 26.9231 21.185 24.6907C21.185 22.4583 20.7522 20.4309 19.8866 18.6085C19.021 16.7862 17.7795 15.351 16.1621 14.3032C14.5676 13.2553 12.711 12.7314 10.5925 12.7314C8.47402 12.7314 6.60609 13.2553 4.98873 14.3032C3.39416 15.351 2.16406 16.7862 1.29844 18.6085C0.432813 20.4309 0 22.4583 0 24.6907C0 26.9231 0.432813 28.9505 1.29844 30.7728C2.16406 32.5952 3.39416 34.0303 4.98873 35.0782ZM14.4195 33.9848C13.3489 34.8504 12.0732 35.2832 10.5925 35.2832C9.11184 35.2832 7.8248 34.8504 6.73138 33.9848C5.66073 33.1191 4.84067 31.9004 4.27118 30.3286C3.70169 28.7341 3.41694 26.8547 3.41694 24.6907C3.41694 22.5266 3.70169 20.6587 4.27118 19.0869C4.84067 17.4923 5.66073 16.2622 6.73138 15.3966C7.8248 14.531 9.11184 14.0982 10.5925 14.0982C12.0732 14.0982 13.3489 14.531 14.4195 15.3966C15.5129 16.2622 16.3444 17.4923 16.9139 19.0869C17.4834 20.6587 17.7681 22.5266 17.7681 24.6907C17.7681 26.8547 17.4834 28.7341 16.9139 30.3286C16.3444 31.9004 15.5129 33.1191 14.4195 33.9848ZM25.2483 21.4446C25.5672 21.9913 25.7266 22.8455 25.7266 24.0073V42.4588H28.8019V35.2832C29.4625 35.6021 30.1231 35.8527 30.7837 36.0349C31.4443 36.2172 32.2074 36.3083 33.0731 36.3083C35.1916 36.3083 36.7975 35.5224 37.8909 33.9506C39.0071 32.3788 39.5653 30.3742 39.5653 27.9368C39.5653 25.5221 39.0299 23.5289 37.9593 21.9571C36.8886 20.3626 35.3738 19.5653 33.4148 19.5653C32.253 19.5653 31.2963 19.7475 30.5445 20.112C29.7928 20.4765 29.2119 20.9207 28.8019 21.4446H28.631C28.4488 20.8979 28.1299 20.5106 27.6743 20.2828C27.2415 20.0322 26.5923 19.907 25.7266 19.907H22.6514V20.5903H23.3348C24.2915 20.5903 24.9293 20.8751 25.2483 21.4446ZM35.2599 33.028C34.5765 34.3037 33.5059 34.9415 32.048 34.9415C31.5696 34.9415 31.0798 34.8504 30.5787 34.6681C30.0775 34.4859 29.4853 34.2353 28.8019 33.9164V22.9822C29.6675 21.6154 30.8634 20.932 32.3897 20.932C33.6881 20.932 34.6676 21.5813 35.3282 22.8797C35.9889 24.1554 36.3192 25.841 36.3192 27.9368C36.3192 30.0553 35.9661 31.7524 35.2599 33.028ZM46.6867 17.2861C46.759 17.1931 46.8181 17.091 46.8639 16.9797C46.8116 17.0861 46.7524 17.1884 46.6867 17.2861ZM44.1127 24.0073C44.1127 22.8455 43.9533 21.9913 43.6343 21.4446C43.3154 20.8751 42.6776 20.5903 41.7209 20.5903H41.0375V19.907H44.1127C44.9556 19.907 45.582 20.0209 45.992 20.2487C46.4249 20.4537 46.7324 20.8409 46.9146 21.4104C47.0968 21.9799 47.188 22.8455 47.188 24.0073V35.9666H44.1127V24.0073ZM50.1297 35.9666C50.8131 36.1944 51.4396 36.3083 52.0091 36.3083C52.943 36.3083 53.7289 36.0691 54.3667 35.5907C55.0274 35.0896 55.631 34.3037 56.1777 33.233L58.2279 29.1327H60.8931V35.9666H63.9684V24.0073C63.9684 22.8455 64.1278 21.9913 64.4467 21.4446C64.7656 20.8751 65.4035 20.5903 66.3602 20.5903V19.907H58.3304C53.7745 19.907 51.4965 21.4446 51.4965 24.5198C51.4965 25.7271 51.8724 26.7295 52.6241 27.5267C53.3986 28.3012 54.3326 28.7796 55.426 28.9619L53.3758 32.5496C52.8747 33.3469 52.3849 33.9848 51.9065 34.4631C51.4282 34.9415 50.8359 35.2149 50.1297 35.2832V35.9666ZM59.8339 27.8343C59.401 27.9026 59.0138 27.9368 58.6721 27.9368C56.0524 27.9368 54.7426 26.7978 54.7426 24.5198C54.7426 22.2419 56.0524 21.1029 58.6721 21.1029C59.0138 21.1029 59.401 21.1371 59.8339 21.2054C60.2667 21.2737 60.6197 21.3535 60.8931 21.4446V27.5951C60.6197 27.6862 60.2667 27.7659 59.8339 27.8343ZM69.9058 24.0073C69.9058 22.8455 69.7464 21.9913 69.4275 21.4446C69.1085 20.8751 68.4707 20.5903 67.514 20.5903H67.0014V19.907H69.9058C70.7487 19.907 71.3751 20.0209 71.7851 20.2487C72.2179 20.4537 72.5255 20.8409 72.7077 21.4104C72.89 21.9799 72.9811 22.8455 72.9811 24.0073V27.2534H79.8149V19.907H82.8902V31.8663C82.8902 33.028 83.0497 33.8936 83.3686 34.4631C83.6875 35.0098 84.3253 35.2832 85.2821 35.2832H85.7946V35.9666H82.8902C82.0474 35.9666 81.4095 35.8641 80.9767 35.6591C80.5667 35.4313 80.2705 35.0326 80.0883 34.4631C79.9061 33.8936 79.8149 33.028 79.8149 31.8663V28.6202H72.9811V35.9666H69.9058V24.0073ZM89.92 35.8641C90.6717 36.1602 91.4121 36.3083 92.141 36.3083C93.3256 36.3083 94.3165 36.126 95.1138 35.7616C95.9111 35.3971 96.5147 34.9529 96.9248 34.429H97.0956L98.2915 35.9666H100V26.7408C100 23.9389 99.4647 22.0482 98.394 21.0687C97.3234 20.0664 95.8655 19.5653 94.0204 19.5653C92.9042 19.5653 91.8677 19.6678 90.9109 19.8728C89.977 20.055 89.305 20.3512 88.8949 20.7612C88.5077 21.1484 88.2685 21.5699 88.1774 22.0255C88.0863 22.4583 88.0407 23.0619 88.0407 23.8364H89.5783C89.8289 22.7658 90.2617 22.0141 90.8768 21.5813C91.4918 21.1484 92.3119 20.932 93.337 20.932C94.4987 20.932 95.3871 21.3421 96.0022 22.1621C96.6172 22.9822 96.9248 24.5084 96.9248 26.7408H95.8997C93.3028 26.7408 91.1957 27.1053 89.5783 27.8343C87.9838 28.5632 87.1865 29.7933 87.1865 31.5246C87.1865 32.6863 87.4484 33.6203 87.9724 34.3265C88.5191 35.0326 89.1683 35.5452 89.92 35.8641ZM95.558 34.2239C95.0568 34.5884 94.4304 34.7707 93.6787 34.7707C92.7675 34.7707 91.993 34.4973 91.3551 33.9506C90.7401 33.3811 90.4326 32.5724 90.4326 31.5246C90.4326 30.4995 90.9223 29.6794 91.9019 29.0644C92.8814 28.4265 94.214 28.1076 95.8997 28.1076H96.9248V32.7205C96.5147 33.3583 96.0591 33.8595 95.558 34.2239Z" fill="#1E1E1E"/>
<g id="&#208;&#187;&#209;&#150;&#209;&#134;&#208;&#181;&#208;&#185;">
<path d="M74.8534 14.8399C74.717 14.8399 74.5689 14.8132 74.4088 14.7599V14.5376C74.7052 14.5258 74.9571 14.3983 75.1646 14.1553C75.3779 13.9123 75.5498 13.4588 75.6802 12.795C75.8106 12.1252 75.8758 11.1768 75.8758 9.94983C75.8758 9.64753 75.8343 9.42525 75.7514 9.28299C75.6684 9.13481 75.5024 9.06072 75.2535 9.06072H75.1646V8.8829H79.5656V14.751H78.7654V9.23854H76.5427V9.94983C76.5427 11.2301 76.4656 12.2319 76.3115 12.955C76.1633 13.6722 75.9648 14.1672 75.7158 14.4398C75.4728 14.7066 75.1853 14.8399 74.8534 14.8399Z" fill="#F18B5E"/>
<path d="M81.9232 14.751C81.7039 14.751 81.5379 14.7243 81.4253 14.671C81.3186 14.6117 81.2415 14.508 81.1941 14.3598C81.1467 14.2116 81.123 13.9864 81.123 13.6841V8.8829H81.9232V13.6841C81.9232 13.9864 81.9647 14.2116 82.0476 14.3598C82.1306 14.5021 82.2966 14.5732 82.5455 14.5732H82.7234V14.751H81.9232Z" fill="#F18B5E"/>
<path d="M88.4773 16.3514C88.4062 15.7587 88.2846 15.3437 88.1127 15.1067C87.9409 14.8696 87.6919 14.751 87.3659 14.751H83.8095V9.94983C83.8095 9.64753 83.768 9.42525 83.685 9.28299C83.602 9.13481 83.436 9.06072 83.1871 9.06072H83.0093V8.8829H83.8095C84.0288 8.8829 84.1918 8.91253 84.2985 8.97181C84.4111 9.02515 84.4911 9.12592 84.5385 9.2741C84.586 9.42229 84.6097 9.64753 84.6097 9.94983V14.3954H87.277V8.8829H88.0772V14.3954H88.5662C88.6551 14.3954 88.7292 14.425 88.7885 14.4843C88.8477 14.5435 88.8774 14.6176 88.8774 14.7066V16.3514H88.4773Z" fill="#F18B5E"/>
<path d="M89.9915 9.94983C89.9915 9.64753 89.95 9.42525 89.8671 9.28299C89.7841 9.13481 89.6181 9.06072 89.3692 9.06072H89.1913V8.8829H92.9789C93.4828 8.8829 93.7347 9.11999 93.7347 9.59418V10.261H93.5569C93.5569 9.57936 93.1864 9.23854 92.4455 9.23854H90.7917V11.5502H93.1923V11.9059H90.7917V14.3954H92.3477C92.7567 14.3954 93.0767 14.3213 93.3079 14.1731C93.5391 14.0249 93.7228 13.773 93.8592 13.4173L94.037 13.4618L93.7258 14.3065C93.6191 14.6028 93.3968 14.751 93.059 14.751H89.9915V9.94983Z" fill="#F18B5E"/>
<path d="M95.2359 9.94983C95.2359 9.64753 95.1944 9.42525 95.1114 9.28299C95.0284 9.13481 94.8625 9.06072 94.6135 9.06072H94.4357V8.8829H95.2359C95.4552 8.8829 95.6182 8.91253 95.7249 8.97181C95.8375 9.02515 95.9175 9.12592 95.965 9.2741C96.0124 9.42229 96.0361 9.64753 96.0361 9.94983V13.9508L98.8812 8.8829H99.6814V14.751H98.8812V9.68309L96.0361 14.751H95.2359V9.94983ZM97.3697 8.52725C96.8363 8.52725 96.451 8.26052 96.2139 7.72706L96.3917 7.59369C96.6051 7.86042 96.9311 7.99379 97.3697 7.99379C97.8084 7.99379 98.1344 7.86042 98.3478 7.59369L98.5256 7.72706C98.2885 8.26052 97.9032 8.52725 97.3697 8.52725Z" fill="#F18B5E"/>
</g>
</g>
<g id="sun">
<path id="fingerprint" d="M44.3916 17.3443C43.2254 16.617 42.4486 15.3226 42.4486 13.8465C42.4486 13.0881 43.0633 12.4734 43.8213 12.4734C44.5792 12.4734 45.1939 13.0881 45.1939 13.8465C45.1939 14.6049 45.8086 15.2196 46.5666 15.2196C47.3245 15.2196 47.9392 14.6049 47.9392 13.8465C47.9392 11.5713 46.0956 9.72719 43.8217 9.72719C41.5479 9.72719 39.7042 11.5713 39.7042 13.8465C39.7042 14.3537 39.761 14.8475 39.8653 15.3235M42.0679 16.9942C41.4431 16.1026 41.0756 15.0178 41.0756 13.8465C41.0756 12.3297 42.3045 11.1003 43.8205 11.1003C45.3364 11.1003 46.5653 12.3297 46.5653 13.8465M46.7141 16.5854C46.6646 16.5882 46.6161 16.5928 46.5662 16.5928C45.0503 16.5928 43.8214 15.3634 43.8214 13.8466M47.6534 10.0906C46.7174 9.02735 45.3488 8.35406 43.8211 8.35406C42.2932 8.35406 40.9247 9.02735 39.9887 10.0906" stroke="#F18B5E" stroke-width="0.998917" stroke-linecap="round" stroke-linejoin="round"/>
<g id="rays">
<mask id="mask0_1135_3291" style="mask-type:luminance" maskUnits="userSpaceOnUse" x="31" y="1" width="26" height="24">
<g id="clip0">
<path id="Vector" d="M56.1113 1.00004L31 1.41547L31.7516 24.4843L56.8628 24.0689L56.1113 1.00004Z" fill="white"/>
</g>
</mask>
<g mask="url(#mask0_1135_3291)">
<g id="Group">
<path id="Vector_2" d="M36.8366 13.3409C36.8842 13.2754 36.9177 13.2004 36.9349 13.1206C36.9522 13.0407 36.9527 12.9578 36.9366 12.877C36.8591 12.3444 36.3978 12.3547 36.0644 12.3619L36.0392 12.3622C35.6937 12.3694 35.3521 12.3984 34.9562 12.4318C34.776 12.4471 34.5846 12.4633 34.3783 12.4786C34.2459 12.48 34.1023 12.4784 33.9504 12.477C33.4832 12.4635 33.0162 12.478 32.5518 12.5204C32.3042 12.5476 31.9259 12.8344 31.8915 13.0791C31.8802 13.1352 31.881 13.1934 31.8939 13.2496C31.9069 13.3058 31.9317 13.3587 31.9666 13.4047C32.0987 13.568 32.3544 13.5959 32.5834 13.6094C32.7781 13.6208 32.9723 13.6388 33.1673 13.6567C33.4957 13.6869 33.8356 13.7182 34.1708 13.7168L34.2657 13.7159C34.8341 13.7102 35.4607 13.6754 36.2274 13.6071C36.3422 13.607 36.4554 13.5834 36.5601 13.5376C36.6648 13.4919 36.7588 13.4249 36.8366 13.3409Z" fill="#F79F79" fill-opacity="0.82"/>
<path id="Vector_3" d="M42.9075 2.07139C42.9317 2.74926 42.9657 3.43781 42.9979 4.10313L43.0328 4.82316C43.0338 4.85249 43.0327 4.88371 43.0313 4.9151C43.0175 5.00414 43.032 5.09596 43.0724 5.17653C43.109 5.23143 43.1451 5.29227 43.1817 5.35402C43.3142 5.57673 43.4512 5.80714 43.6483 5.86682C43.7033 5.88413 43.7604 5.89268 43.8176 5.89222C43.8969 5.8912 43.9741 5.86803 44.0414 5.82509C44.246 5.69542 44.3368 5.41395 44.3767 5.20077C44.4145 4.96309 44.4333 4.72223 44.4331 4.48065C44.4353 4.39461 44.4374 4.30859 44.4412 4.22315L44.5363 4.19043L44.5193 4.11916C44.4695 3.9105 44.422 3.70088 44.3745 3.4914C44.2503 2.94196 44.1214 2.37398 43.9483 1.82882C43.8868 1.69143 43.7933 1.57206 43.6766 1.48185C43.5599 1.39163 43.4238 1.33351 43.281 1.31291C43.2293 1.31086 43.1779 1.3195 43.1298 1.33836C43.0816 1.35722 43.0376 1.38592 43.0003 1.42281C42.8784 1.55923 42.8913 1.78049 42.9027 1.97571C42.9045 2.00936 42.9065 2.04161 42.9075 2.07139Z" fill="#F79F79" fill-opacity="0.82"/>
<path id="Vector_4" d="M48.7999 7.87032C49.0025 7.86754 49.2012 7.81941 49.3818 7.72931C49.5624 7.63921 49.7204 7.50943 49.8443 7.34927C50.4487 6.66961 51.0387 5.95722 51.6094 5.26824L52.0059 4.79036C52.1199 4.66655 52.2041 4.51758 52.2519 4.35482C52.2733 4.26506 52.304 3.92465 52.1605 3.85299C51.9875 3.78662 51.7982 3.78225 51.6244 3.84055C51.5195 3.88452 51.4289 3.95711 51.3628 4.05035C51.3431 4.07328 51.3234 4.09592 51.3038 4.11671C51.1028 4.32949 50.9012 4.54173 50.6988 4.75343C50.1217 5.35902 49.5251 5.98523 48.9605 6.62238C48.7952 6.82974 48.6585 7.05902 48.5541 7.30414C48.4902 7.43565 48.424 7.57153 48.3445 7.71633L48.2908 7.81388L48.4006 7.83405C48.5324 7.85932 48.6662 7.87146 48.7999 7.87032Z" fill="#F79F79" fill-opacity="0.82"/>
<path id="Vector_5" d="M55.8412 12.0071C55.619 11.9467 55.3909 11.9151 55.1621 11.9131C54.3638 11.9442 53.5542 11.9992 52.7712 12.0525C52.4867 12.0718 52.2023 12.0908 51.9179 12.1094C51.8987 12.1105 51.8781 12.1098 51.8573 12.11C51.7798 12.0992 51.7019 12.118 51.6384 12.1627C51.5975 12.2015 51.5512 12.2404 51.5043 12.28C51.3398 12.4186 51.1697 12.5621 51.1471 12.7442C51.1363 12.802 51.1386 12.8618 51.1539 12.919C51.1691 12.9763 51.1968 13.0295 51.2351 13.0748C51.3071 13.139 51.3916 13.1873 51.4826 13.2163C51.5738 13.2454 51.6695 13.2546 51.7636 13.2433L51.7846 13.2431C52.0964 13.236 52.4084 13.2327 52.7205 13.2292C53.4284 13.2214 54.1607 13.2134 54.8781 13.1629C55.3756 13.128 55.9307 12.986 56.276 12.1986L56.3182 12.1024L56.2148 12.0844C56.0813 12.0608 55.9578 12.0332 55.8412 12.0071Z" fill="#F79F79" fill-opacity="0.82"/>
<path id="Vector_6" d="M38.2796 8.73065L38.3712 8.7824L38.3937 8.67977C38.5683 7.88247 38.5529 7.68224 37.9816 7.17821C37.2734 6.55333 36.4894 5.91004 35.586 5.21173C35.4438 5.1293 35.2807 5.09292 35.119 5.10757C35.0502 5.10733 34.9815 5.10331 34.9131 5.09554L34.8187 5.08255L34.8254 5.17866C34.8284 5.24733 34.8276 5.31603 34.8227 5.38445C34.8143 5.55798 34.8056 5.7374 34.9025 5.84793C35.6929 6.74816 36.791 7.88971 38.2796 8.73065Z" fill="#F79F79" fill-opacity="0.82"/>
</g>
</g>
</g>
</g>
</g>
</svg>
