<svg width="169" height="184" viewBox="0 0 169 184" fill="none" xmlns="http://www.w3.org/2000/svg">
<path fill-rule="evenodd" clip-rule="evenodd" d="M0.421754 80.7854C3.22854 39.6196 22.9629 -0.274084 58.3536 -27.3889C93.7435 -54.5032 137.398 -63.1751 177.876 -55.1727C185.065 -53.7514 189.741 -46.7712 188.32 -39.5819C186.899 -32.3927 179.918 -27.7168 172.729 -29.1381C139.368 -35.7335 103.544 -28.5794 74.4937 -6.32266C45.4428 15.9349 29.212 48.6634 26.8988 82.5907C26.4003 89.9021 20.0691 95.4251 12.7576 94.9266C5.44621 94.4281 -0.0767539 88.0969 0.421754 80.7854ZM57.8148 173.563C16.5984 119.767 26.779 42.7584 80.5536 1.55852C134.329 -39.6418 211.334 -29.4313 252.551 24.3652C269.26 46.1751 265.129 77.4002 243.325 94.105C221.521 110.811 190.297 106.673 173.588 84.8631C165.789 74.6835 151.222 72.7589 141.056 80.5474C130.892 88.335 128.959 102.901 136.758 113.081C157.706 140.422 190.46 153.399 222.442 150.314C229.736 149.61 236.22 154.953 236.924 162.247C237.627 169.542 232.285 176.026 224.99 176.729C184.281 180.657 142.444 164.139 115.692 129.221C98.982 107.411 103.113 76.186 124.916 59.4811C146.721 42.7753 177.944 46.9134 194.654 68.723C202.453 78.9026 217.02 80.8272 227.185 73.0387C237.35 65.2509 239.283 50.6846 231.484 40.5053C199.176 -1.66399 138.827 -9.65591 96.6937 22.6248C54.5613 54.9049 46.5727 115.254 78.8811 157.423C86.4709 167.33 94.9796 176.139 104.171 183.9C109.77 188.628 110.477 197 105.749 202.599C101.021 208.199 92.6491 208.905 87.0498 204.177C76.4583 195.234 66.6137 185.048 57.8148 173.563ZM118.854 51.6029C92.7058 71.6364 87.7476 109.09 107.802 135.265C125.011 157.727 147.972 173.112 173.049 181.03C180.037 183.236 183.914 190.69 181.708 197.678C179.501 204.666 172.047 208.543 165.059 206.337C134.973 196.838 107.377 178.346 86.7357 151.405C57.7742 113.604 64.9222 59.4909 102.714 30.5367C140.505 1.58272 194.614 8.76428 223.575 46.5651C228.032 52.3824 226.929 60.7113 221.112 65.1683C215.295 69.6252 206.966 68.5225 202.509 62.7052C182.454 36.5297 145.001 31.5701 118.854 51.6029ZM147.107 88.4375C152.924 83.9805 161.253 85.0833 165.71 90.9005C185.764 117.076 223.218 122.036 249.365 102.003C249.764 101.698 250.01 101.481 250.465 101.079C250.774 100.807 251.178 100.45 251.792 99.9235C257.353 95.1507 265.731 95.7898 270.503 101.351C275.276 106.912 274.637 115.289 269.076 120.062C268.981 120.144 268.839 120.268 268.662 120.424C267.947 121.053 266.655 122.189 265.505 123.07C227.714 152.024 173.605 144.841 144.643 107.041C140.186 101.223 141.289 92.8944 147.107 88.4375Z" fill="#D9E9EB"/>
</svg>
