<svg width="24" height="24" viewBox="0 0 24 24" fill="none" xmlns="http://www.w3.org/2000/svg">
<g id="Filled/Instagram Icon">
<path id="Instagram" fill-rule="evenodd" clip-rule="evenodd" d="M1.19995 12.0002C1.19995 7.68603 1.19995 5.52894 2.22798 3.97526C2.68705 3.28146 3.28122 2.68729 3.97501 2.22823C5.5287 1.2002 7.68578 1.2002 12 1.2002C16.3141 1.2002 18.4712 1.2002 20.0249 2.22823C20.7187 2.68729 21.3129 3.28146 21.7719 3.97526C22.8 5.52894 22.8 7.68603 22.8 12.0002C22.8 16.3144 22.8 18.4714 21.7719 20.0251C21.3129 20.7189 20.7187 21.3131 20.0249 21.7722C18.4712 22.8002 16.3141 22.8002 12 22.8002C7.68578 22.8002 5.5287 22.8002 3.97501 21.7722C3.28122 21.3131 2.68705 20.7189 2.22798 20.0251C1.19995 18.4714 1.19995 16.3144 1.19995 12.0002ZM17.5915 12.0005C17.5915 15.0885 15.0882 17.5918 12.0002 17.5918C8.91221 17.5918 6.4089 15.0885 6.4089 12.0005C6.4089 8.91256 8.91221 6.40925 12.0002 6.40925C15.0882 6.40925 17.5915 8.91256 17.5915 12.0005ZM12.0002 15.7001C14.0434 15.7001 15.6998 14.0438 15.6998 12.0005C15.6998 9.95731 14.0434 8.30094 12.0002 8.30094C9.95696 8.30094 8.30059 9.95731 8.30059 12.0005C8.30059 14.0438 9.95696 15.7001 12.0002 15.7001ZM17.8123 7.44213C18.5379 7.44213 19.1261 6.85392 19.1261 6.12834C19.1261 5.40275 18.5379 4.81455 17.8123 4.81455C17.0867 4.81455 16.4985 5.40275 16.4985 6.12834C16.4985 6.85392 17.0867 7.44213 17.8123 7.44213Z" fill="#D9E9EB"/>
</g>
</svg>
