<svg width="186" height="72" viewBox="0 0 186 72" fill="none" xmlns="http://www.w3.org/2000/svg">
<path fill-rule="evenodd" clip-rule="evenodd" d="M20.1154 58.4113C22.7465 60.1159 25.7851 60.9682 29.2314 60.9682C32.6777 60.9682 35.6978 60.1159 38.2918 58.4113C40.9228 56.7066 42.9424 54.3721 44.3505 51.4075C45.7587 48.443 46.4628 45.1449 46.4628 41.5134C46.4628 37.8818 45.7587 34.5838 44.3505 31.6192C42.9424 28.6547 40.9228 26.3201 38.2918 24.6155C35.6978 22.9109 32.6777 22.0586 29.2314 22.0586C25.7851 22.0586 22.7465 22.9109 20.1154 24.6155C17.5215 26.3201 15.5204 28.6547 14.1122 31.6192C12.7041 34.5838 12 37.8818 12 41.5134C12 45.1449 12.7041 48.443 14.1122 51.4075C15.5204 54.3721 17.5215 56.7066 20.1154 58.4113ZM35.4569 56.6325C33.7152 58.0407 31.6401 58.7448 29.2314 58.7448C26.8227 58.7448 24.729 58.0407 22.9503 56.6325C21.2086 55.2244 19.8746 53.2418 18.9481 50.6849C18.0217 48.091 17.5585 45.0338 17.5585 41.5134C17.5585 37.993 18.0217 34.9543 18.9481 32.3974C19.8746 29.8035 21.2086 27.8024 22.9503 26.3942C24.729 24.9861 26.8227 24.282 29.2314 24.282C31.6401 24.282 33.7152 24.9861 35.4569 26.3942C37.2356 27.8024 38.5882 29.8035 39.5146 32.3974C40.441 34.9543 40.9043 37.993 40.9043 41.5134C40.9043 45.0338 40.441 48.091 39.5146 50.6849C38.5882 53.2418 37.2356 55.2244 35.4569 56.6325ZM53.0726 36.2328C53.5914 37.1222 53.8508 38.5118 53.8508 40.4017V70.4176H58.8535V58.7448C59.9281 59.2636 61.0027 59.6712 62.0774 59.9676C63.152 60.2641 64.3934 60.4123 65.8016 60.4123C69.2479 60.4123 71.8604 59.1339 73.6391 56.5769C75.4549 54.02 76.3628 50.759 76.3628 46.794C76.3628 42.866 75.4919 39.6235 73.7503 37.0666C72.0086 34.4726 69.5443 33.1756 66.3574 33.1756C64.4676 33.1756 62.9112 33.4721 61.6883 34.065C60.4654 34.6579 59.5205 35.3805 58.8535 36.2328H58.5755C58.2791 35.3434 57.7603 34.7135 57.0191 34.3429C56.3151 33.9353 55.259 33.7315 53.8508 33.7315H48.8481V34.8432H49.9598C51.5162 34.8432 52.5538 35.3064 53.0726 36.2328ZM69.359 55.0761C68.2473 57.1513 66.5057 58.1889 64.134 58.1889C63.3559 58.1889 62.5591 58.0407 61.7439 57.7442C60.9286 57.4478 59.9652 57.0402 58.8535 56.5214V38.7341C60.2616 36.5107 62.2071 35.399 64.6899 35.399C66.8021 35.399 68.3956 36.4551 69.4702 38.5674C70.5449 40.6425 71.0822 43.3847 71.0822 46.794C71.0822 50.2402 70.5078 53.001 69.359 55.0761ZM83.7604 40.4017C83.7604 38.5118 83.501 37.1222 82.9822 36.2328C82.4634 35.3064 81.4258 34.8432 79.8694 34.8432H78.7577V33.7315H83.7604C85.1315 33.7315 86.1505 33.9167 86.8175 34.2873C87.5216 34.6208 88.0219 35.2508 88.3183 36.1772C88.6148 37.1036 88.763 38.5118 88.763 40.4017V59.8565H83.7604V40.4017ZM93.5485 59.8565C94.6602 60.227 95.6793 60.4123 96.6057 60.4123C98.125 60.4123 99.4035 60.0232 100.441 59.245C101.516 58.4298 102.498 57.1513 103.387 55.4097L106.722 48.7394H111.058V59.8565H116.061V40.4017C116.061 38.5118 116.32 37.1222 116.839 36.2328C117.357 35.3064 118.395 34.8432 119.951 34.8432V33.7315H106.889C99.4776 33.7315 95.7719 36.2328 95.7719 41.2355C95.7719 43.1995 96.3834 44.83 97.6063 46.1269C98.8662 47.3869 100.386 48.1651 102.164 48.4615L98.8291 54.298C98.0139 55.5949 97.2172 56.6325 96.439 57.4107C95.6608 58.1889 94.6973 58.6336 93.5485 58.7448V59.8565ZM109.335 46.6272C108.631 46.7384 108.001 46.794 107.445 46.794C103.183 46.794 101.053 44.9411 101.053 41.2355C101.053 37.5298 103.183 35.6769 107.445 35.6769C108.001 35.6769 108.631 35.7325 109.335 35.8437C110.039 35.9549 110.613 36.0846 111.058 36.2328V46.2381C110.613 46.3863 110.039 46.516 109.335 46.6272ZM125.719 40.4017C125.719 38.5118 125.46 37.1222 124.941 36.2328C124.422 35.3064 123.385 34.8432 121.828 34.8432H120.995V33.7315H125.719C127.09 33.7315 128.109 33.9167 128.776 34.2873C129.481 34.6208 129.981 35.2508 130.277 36.1772C130.574 37.1036 130.722 38.5118 130.722 40.4017V45.6823H141.839V33.7315H146.842V53.1863C146.842 55.0761 147.101 56.4843 147.62 57.4107C148.139 58.3001 149.176 58.7448 150.733 58.7448H151.566V59.8565H146.842C145.471 59.8565 144.433 59.6897 143.729 59.3562C143.062 58.9856 142.58 58.3371 142.284 57.4107C141.987 56.4843 141.839 55.0761 141.839 53.1863V47.9057H130.722V59.8565H125.719V40.4017ZM158.277 59.6897C159.5 60.1715 160.705 60.4123 161.89 60.4123C163.817 60.4123 165.429 60.1159 166.726 59.523C168.023 58.93 169.005 58.2074 169.672 57.3551H169.95L171.896 59.8565H174.675V44.8485C174.675 40.2905 173.804 37.2148 172.062 35.6214C170.321 33.9909 167.949 33.1756 164.948 33.1756C163.132 33.1756 161.446 33.3424 159.889 33.6759C158.37 33.9723 157.277 34.4541 156.61 35.1211C155.98 35.7511 155.591 36.4366 155.443 37.1777C155.294 37.8818 155.22 38.8638 155.22 40.1238H157.722C158.129 38.3821 158.833 37.1592 159.834 36.4551C160.834 35.7511 162.168 35.399 163.836 35.399C165.726 35.399 167.171 36.066 168.172 37.4001C169.172 38.7341 169.672 41.2169 169.672 44.8485H168.005C163.78 44.8485 160.353 45.4414 157.722 46.6272C155.128 47.813 153.831 49.8141 153.831 52.6304C153.831 54.5203 154.257 56.0396 155.109 57.1884C155.998 58.3371 157.055 59.1709 158.277 59.6897ZM167.449 57.0216C166.634 57.6145 165.615 57.911 164.392 57.911C162.909 57.911 161.65 57.4663 160.612 56.5769C159.611 55.6505 159.111 54.335 159.111 52.6304C159.111 50.9629 159.908 49.6288 161.501 48.6283C163.095 47.5907 165.263 47.0719 168.005 47.0719H169.672V54.5759C169.005 55.6135 168.264 56.4287 167.449 57.0216Z" fill="#D9E9EB"/>
<path d="M133.768 25.5075C133.546 25.5075 133.305 25.4641 133.045 25.3774V25.0158C133.527 24.9965 133.937 24.7892 134.274 24.3938C134.621 23.9985 134.901 23.2609 135.113 22.1809C135.325 21.0913 135.431 19.5485 135.431 17.5526C135.431 17.0608 135.364 16.6992 135.229 16.4678C135.094 16.2267 134.824 16.1062 134.419 16.1062H134.274V15.8169H141.433V25.3629H140.132V16.3955H136.516V17.5526C136.516 19.6353 136.391 21.2649 136.14 22.4413C135.899 23.608 135.576 24.4131 135.171 24.8567C134.775 25.2906 134.308 25.5075 133.768 25.5075Z" fill="#D9E9EB"/>
<path d="M145.269 25.3629C144.912 25.3629 144.642 25.3195 144.459 25.2327C144.285 25.1363 144.16 24.9676 144.083 24.7265C144.005 24.4854 143.967 24.119 143.967 23.6273V15.8169H145.269V23.6273C145.269 24.119 145.336 24.4854 145.471 24.7265C145.606 24.9579 145.876 25.0736 146.281 25.0736H146.57V25.3629H145.269Z" fill="#D9E9EB"/>
<path d="M155.93 27.9663C155.815 27.0021 155.617 26.3271 155.337 25.9414C155.058 25.5557 154.653 25.3629 154.123 25.3629H148.337V17.5526C148.337 17.0608 148.27 16.6992 148.135 16.4678C148 16.2267 147.73 16.1062 147.325 16.1062H147.035V15.8169H148.337C148.694 15.8169 148.959 15.8652 149.133 15.9616C149.316 16.0484 149.446 16.2123 149.523 16.4533C149.6 16.6944 149.639 17.0608 149.639 17.5526V24.7844H153.978V15.8169H155.28V24.7844H156.075C156.22 24.7844 156.34 24.8326 156.437 24.929C156.533 25.0254 156.581 25.1459 156.581 25.2906V27.9663H155.93Z" fill="#D9E9EB"/>
<path d="M158.394 17.5526C158.394 17.0608 158.326 16.6992 158.191 16.4678C158.056 16.2267 157.786 16.1062 157.381 16.1062H157.092V15.8169H163.254C164.073 15.8169 164.483 16.2026 164.483 16.974V18.0588H164.194C164.194 16.9499 163.591 16.3955 162.386 16.3955H159.696V20.156H163.601V20.7346H159.696V24.7844H162.227C162.892 24.7844 163.413 24.6638 163.789 24.4228C164.165 24.1817 164.464 23.7719 164.685 23.1934L164.975 23.2657L164.469 24.6397C164.295 25.1218 163.933 25.3629 163.384 25.3629H158.394V17.5526Z" fill="#D9E9EB"/>
<path d="M166.925 17.5526C166.925 17.0608 166.858 16.6992 166.723 16.4678C166.588 16.2267 166.318 16.1062 165.913 16.1062H165.623V15.8169H166.925C167.282 15.8169 167.547 15.8652 167.721 15.9616C167.904 16.0484 168.034 16.2123 168.111 16.4533C168.188 16.6944 168.227 17.0608 168.227 17.5526V24.0612L172.855 15.8169H174.157V25.3629H172.855V17.1187L168.227 25.3629H166.925V17.5526ZM170.396 15.2384C169.529 15.2384 168.902 14.8045 168.516 13.9367L168.805 13.7197C169.152 14.1536 169.683 14.3706 170.396 14.3706C171.11 14.3706 171.64 14.1536 171.987 13.7197L172.277 13.9367C171.891 14.8045 171.264 15.2384 170.396 15.2384Z" fill="#D9E9EB"/>
<path d="M84.2143 29.5877C82.3172 28.4046 81.0536 26.299 81.0536 23.8977C81.0536 22.664 82.0536 21.664 83.2866 21.664C84.5196 21.664 85.5195 22.664 85.5195 23.8977C85.5195 25.1315 86.5195 26.1314 87.7525 26.1314C88.9855 26.1314 89.9855 25.1315 89.9855 23.8977C89.9855 20.1965 86.9863 17.1966 83.2873 17.1966C79.5883 17.1966 76.5892 20.1965 76.5892 23.8977C76.5892 24.7227 76.6815 25.5261 76.8513 26.3004M80.4343 29.0182C79.4179 27.5678 78.82 25.8031 78.82 23.8977C78.82 21.4303 80.8192 19.4303 83.2853 19.4303C85.7513 19.4303 87.7504 21.4303 87.7504 23.8977M87.9924 28.3533C87.912 28.3578 87.8331 28.3652 87.7519 28.3652C85.2859 28.3652 83.2868 26.3653 83.2868 23.8978M89.5205 17.7878C87.9978 16.0581 85.7716 14.9629 83.2862 14.9629C80.8008 14.9629 78.5746 16.0581 77.0519 17.7878" stroke="#D9E9EB" stroke-width="1.62499" stroke-linecap="round" stroke-linejoin="round"/>
<mask id="mask0_756_1174" style="mask-type:luminance" maskUnits="userSpaceOnUse" x="62" y="3" width="43" height="39">
<path d="M103.216 3.15044L62.3663 3.82617L63.5888 41.3535L104.439 40.6777L103.216 3.15044Z" fill="white"/>
</mask>
<g mask="url(#mask0_756_1174)">
<path d="M71.9248 23.0758C72.0022 22.9694 72.0568 22.8473 72.0848 22.7174C72.1128 22.5875 72.1137 22.4526 72.0875 22.3212C71.9615 21.4547 71.211 21.4714 70.6687 21.4833L70.6276 21.4837C70.0656 21.4955 69.5099 21.5425 68.8659 21.5969C68.5727 21.6218 68.2614 21.6482 67.9258 21.6731C67.7104 21.6753 67.4768 21.6728 67.2298 21.6704C66.4698 21.6484 65.7101 21.672 64.9545 21.7411C64.5518 21.7853 63.9363 22.2518 63.8804 22.65C63.862 22.7412 63.8633 22.8358 63.8844 22.9273C63.9055 23.0188 63.9458 23.1049 64.0025 23.1797C64.2175 23.4453 64.6334 23.4908 65.006 23.5127C65.3227 23.5312 65.6386 23.5606 65.9559 23.5897C66.49 23.6388 67.043 23.6896 67.5883 23.6875L67.7426 23.6859C68.6672 23.6766 69.6866 23.62 70.9338 23.5089C71.1206 23.5088 71.3047 23.4704 71.4749 23.3959C71.6453 23.3215 71.7982 23.2126 71.9248 23.0758Z" fill="#D9E9EB"/>
<path d="M81.8004 4.74285C81.8397 5.84558 81.8949 6.96569 81.9473 8.048L82.0042 9.21932C82.0057 9.26703 82.0039 9.31781 82.0017 9.36887C81.9792 9.51373 82.0028 9.6631 82.0686 9.79416C82.128 9.88348 82.1867 9.98245 82.2463 10.0829C82.4618 10.4452 82.6848 10.82 83.0053 10.9171C83.0949 10.9453 83.1877 10.9592 83.2808 10.9584C83.4097 10.9568 83.5354 10.9191 83.6448 10.8492C83.9777 10.6383 84.1254 10.1804 84.1902 9.83359C84.2516 9.44695 84.2823 9.05513 84.282 8.66214C84.2855 8.52217 84.289 8.38224 84.2952 8.24324L84.4499 8.19002L84.4222 8.07408C84.3411 7.73464 84.2639 7.39364 84.1866 7.05287C83.9846 6.15906 83.775 5.23509 83.4934 4.34825C83.3933 4.12475 83.2413 3.93056 83.0514 3.7838C82.8616 3.63704 82.6402 3.5425 82.4079 3.50898C82.3238 3.50564 82.2402 3.51971 82.1618 3.55038C82.0835 3.58106 82.0119 3.62774 81.9512 3.68775C81.753 3.90968 81.774 4.26962 81.7925 4.58719C81.7955 4.64193 81.7986 4.6944 81.8004 4.74285Z" fill="#D9E9EB"/>
<path d="M91.3864 14.1766C91.7159 14.1721 92.0392 14.0938 92.3329 13.9472C92.6267 13.8007 92.8837 13.5895 93.0853 13.329C94.0686 12.2233 95.0282 11.0644 95.9567 9.94363L96.6016 9.16621C96.787 8.96481 96.924 8.72247 97.0018 8.45769C97.0366 8.31168 97.0866 7.75791 96.8531 7.64132C96.5717 7.53336 96.2638 7.52625 95.9811 7.62108C95.8104 7.69261 95.6631 7.8107 95.5555 7.96238C95.5234 7.99968 95.4914 8.03652 95.4595 8.07034C95.1326 8.41648 94.8045 8.76175 94.4754 9.10613C93.5365 10.0913 92.5661 11.11 91.6476 12.1465C91.3787 12.4838 91.1563 12.8568 90.9866 13.2556C90.8825 13.4695 90.7749 13.6906 90.6456 13.9261L90.5582 14.0848L90.7367 14.1176C90.9512 14.1587 91.1689 14.1785 91.3864 14.1766Z" fill="#D9E9EB"/>
<path d="M102.842 20.9065C102.48 20.8082 102.109 20.7568 101.737 20.7535C100.439 20.8042 99.1215 20.8937 97.8477 20.9803C97.385 21.0118 96.9224 21.0427 96.4598 21.0729C96.4285 21.0747 96.3949 21.0735 96.3611 21.0739C96.235 21.0564 96.1083 21.087 96.0051 21.1597C95.9385 21.2227 95.8632 21.286 95.7868 21.3504C95.5192 21.576 95.2425 21.8094 95.2058 22.1057C95.1883 22.1997 95.1921 22.297 95.2169 22.3901C95.2416 22.4832 95.2867 22.5698 95.3489 22.6434C95.4661 22.748 95.6035 22.8265 95.7516 22.8737C95.8999 22.921 96.0557 22.9359 96.2087 22.9175L96.2428 22.9172C96.7501 22.9057 97.2576 22.9003 97.7654 22.8947C98.9169 22.8819 100.108 22.869 101.275 22.7867C102.084 22.73 102.988 22.499 103.549 21.218L103.618 21.0615L103.45 21.0323C103.233 20.9938 103.032 20.949 102.842 20.9065Z" fill="#D9E9EB"/>
<path d="M74.2714 15.5766L74.4203 15.6608L74.4569 15.4938C74.7409 14.1968 74.7159 13.8711 73.7865 13.0512C72.6345 12.0347 71.359 10.9882 69.8894 9.85227C69.6581 9.71819 69.3928 9.659 69.1296 9.68283C69.0178 9.68244 68.906 9.67591 68.7948 9.66326L68.6412 9.64214L68.652 9.79847C68.657 9.91019 68.6556 10.0219 68.6477 10.1332C68.634 10.4155 68.6199 10.7074 68.7774 10.8872C70.0633 12.3516 71.8497 14.2086 74.2714 15.5766Z" fill="#D9E9EB"/>
</g>
</svg>
