<svg width="24" height="24" viewBox="0 0 24 24" fill="none" xmlns="http://www.w3.org/2000/svg">
<g id="Filled/Map Point">
<path id="Vector" d="M11.7292 21.5965C6.05352 13.3684 5 12.5239 5 9.5C5 5.35785 8.35785 2 12.5 2C16.6421 2 20 5.35785 20 9.5C20 12.5239 18.9465 13.3684 13.2708 21.5965C12.8983 22.1345 12.1016 22.1345 11.7292 21.5965ZM12.5 12.625C14.2259 12.625 15.625 11.2259 15.625 9.5C15.625 7.7741 14.2259 6.375 12.5 6.375C10.7741 6.375 9.375 7.7741 9.375 9.5C9.375 11.2259 10.7741 12.625 12.5 12.625Z" fill="#D9E9EB"/>
</g>
</svg>
