<svg width="24" height="24" viewBox="0 0 24 24" fill="none" xmlns="http://www.w3.org/2000/svg">
<g id="Filled/Phone">
<path id="Vector" d="M16.8333 20.6668C13.4311 20.6623 10.1694 19.3089 7.76367 16.9031C5.35791 14.4973 4.00441 11.2357 4 7.83343C4 6.81677 4.40387 5.84174 5.12276 5.12285C5.84165 4.40396 6.81667 4.0001 7.83333 4.0001C8.04862 3.99846 8.26354 4.01799 8.475 4.05843C8.67943 4.08868 8.88039 4.13892 9.075 4.20843C9.21187 4.25645 9.33384 4.33937 9.42884 4.44899C9.52384 4.5586 9.58858 4.69112 9.61667 4.83343L10.7583 9.83343C10.7891 9.96915 10.7854 10.1104 10.7476 10.2443C10.7097 10.3782 10.6389 10.5006 10.5417 10.6001C10.4333 10.7168 10.425 10.7251 9.4 11.2584C10.2208 13.0591 11.661 14.5052 13.4583 15.3334C14 14.3001 14.0083 14.2918 14.125 14.1834C14.2245 14.0862 14.3468 14.0154 14.4808 13.9775C14.6147 13.9397 14.7559 13.936 14.8917 13.9668L19.8917 15.1084C20.0294 15.1404 20.1568 15.2069 20.2617 15.3016C20.3667 15.3964 20.4458 15.5163 20.4917 15.6501C20.562 15.8479 20.615 16.0514 20.65 16.2584C20.6835 16.4679 20.7003 16.6797 20.7 16.8918C20.6846 17.9041 20.2694 18.8692 19.545 19.5765C18.8205 20.2837 17.8457 20.6757 16.8333 20.6668Z" fill="#D9E9EB"/>
</g>
</svg>
