<svg width="17" height="17" viewBox="0 0 17 17" fill="none" xmlns="http://www.w3.org/2000/svg">
<path d="M12.8333 16.6668C9.43107 16.6623 6.16943 15.3089 3.76367 12.9031C1.35791 10.4973 0.00440993 7.23569 0 3.83343C0 2.81677 0.403868 1.84174 1.12276 1.12285C1.84165 0.403963 2.81667 9.52457e-05 3.83333 9.52457e-05C4.04862 -0.00154459 4.26354 0.0179938 4.475 0.0584285C4.67943 0.0886789 4.88039 0.13892 5.075 0.208429C5.21187 0.256453 5.33384 0.339373 5.42884 0.448989C5.52384 0.558604 5.58858 0.691119 5.61667 0.833429L6.75833 5.83343C6.78911 5.96915 6.7854 6.11041 6.74755 6.24433C6.70971 6.37825 6.63892 6.50056 6.54167 6.60009C6.43333 6.71676 6.425 6.72509 5.4 7.25843C6.22083 9.05914 7.661 10.5052 9.45833 11.3334C10 10.3001 10.0083 10.2918 10.125 10.1834C10.2245 10.0862 10.3468 10.0154 10.4808 9.97754C10.6147 9.93969 10.7559 9.93599 10.8917 9.96676L15.8917 11.1084C16.0294 11.1404 16.1568 11.2069 16.2617 11.3016C16.3667 11.3964 16.4458 11.5163 16.4917 11.6501C16.562 11.8479 16.615 12.0514 16.65 12.2584C16.6835 12.4679 16.7003 12.6797 16.7 12.8918C16.6846 13.9041 16.2694 14.8692 15.545 15.5765C14.8205 16.2837 13.8457 16.6757 12.8333 16.6668Z" fill="#165C64"/>
</svg>
