<svg xmlns="http://www.w3.org/2000/svg" width="193" height="317" viewBox="0 0 193 317" fill="none">
<path fill-rule="evenodd" clip-rule="evenodd" d="M-51.0607 -2.73289C-3.96692 -21.0354 50.522 -19.9114 98.9895 5.21559C147.456 30.342 179.777 74.2233 191.963 123.257C194.127 131.966 188.821 140.781 180.113 142.945C171.404 145.109 162.589 139.804 160.425 131.095C150.382 90.682 123.816 54.6908 84.0327 34.0658C44.2476 13.44 -0.476073 12.4726 -39.2889 27.5568C-47.6532 30.8075 -57.069 26.6621 -60.3197 18.2979C-63.5703 9.93359 -59.425 0.517805 -51.0607 -2.73289ZM-124.053 109.151C-85.8582 35.4772 4.80423 6.70379 78.4485 44.8832C152.094 83.063 180.832 173.737 142.637 247.411C127.152 277.28 90.3889 288.943 60.5293 273.462C30.6679 257.981 19.0131 221.217 34.4977 191.348C41.725 177.408 36.2812 160.259 22.3595 153.041C8.43917 145.825 -8.7133 151.259 -15.9406 165.2C-35.3526 202.644 -32.7 245.703 -12.6432 279.551C-8.0686 287.271 -10.6186 297.238 -18.3388 301.813C-26.059 306.387 -36.0259 303.837 -40.6005 296.117C-66.1303 253.032 -69.5823 198.063 -44.7909 150.243C-29.3062 120.375 7.45643 108.711 37.3163 124.191C67.1778 139.672 78.8325 176.437 63.3479 206.305C56.1205 220.246 61.5644 237.395 75.4861 244.612C89.4067 251.829 106.56 246.395 113.787 232.454C143.726 174.704 121.193 103.648 63.4917 73.7334C5.79145 43.8199 -65.263 66.357 -95.2028 124.108C-102.236 137.675 -107.576 151.689 -111.398 165.916C-113.726 174.582 -122.639 179.72 -131.306 177.392C-139.972 175.063 -145.11 166.15 -142.782 157.484C-138.378 141.091 -132.207 124.879 -124.053 109.151ZM42.8958 113.373C7.08629 94.8078 -37.0115 108.794 -55.5957 144.641C-71.5431 175.402 -76.6545 208.858 -72.3863 240.776C-71.1968 249.67 -77.443 257.845 -86.3376 259.034C-95.2322 260.224 -103.407 253.978 -104.596 245.083C-109.717 206.791 -103.574 166.58 -84.4459 129.685C-57.6077 77.9162 6.09728 57.6908 57.8526 84.5223C109.607 111.354 129.793 175.071 102.955 226.839C98.8248 234.806 89.0182 237.916 81.0514 233.785C73.0847 229.655 69.9745 219.849 74.1047 211.882C92.689 176.035 78.7043 131.937 42.8958 113.373ZM16.7602 163.853C24.727 167.983 27.8371 177.789 23.7069 185.756C5.12257 221.603 19.1072 265.702 54.9156 284.266C55.4617 284.549 55.8306 284.709 56.5121 285.005C56.9744 285.206 57.5806 285.469 58.4837 285.875C66.6673 289.557 70.3166 299.176 66.6347 307.359C62.9528 315.543 53.3338 319.192 45.1502 315.51C45.0101 315.447 44.7981 315.355 44.533 315.239C43.4648 314.774 41.5333 313.933 39.9588 313.116C-11.7962 286.285 -31.9813 222.567 -5.14329 170.799C-1.01308 162.832 8.79346 159.722 16.7602 163.853Z" fill="#81B5BB"/>
</svg>