<svg width="168" height="158" viewBox="0 0 168 158" fill="none" xmlns="http://www.w3.org/2000/svg">
<path id="fingerprint (Stroke)" fill-rule="evenodd" clip-rule="evenodd" d="M0.834954 15.1401C11.1955 -20.133 36.0378 -51.043 72.0425 -67.8243C108.046 -84.6051 147.692 -83.7519 181.368 -69.0036C187.349 -66.3842 190.074 -59.4121 187.455 -53.4311C184.835 -47.4501 177.863 -44.725 171.882 -47.3444C144.128 -59.4996 111.585 -60.1671 82.0315 -46.3925C52.4767 -32.6174 32.0606 -7.26686 23.5219 21.8038C21.6817 28.0686 15.1114 31.6556 8.84655 29.8154C2.58173 27.9753 -1.00518 21.4049 0.834954 15.1401ZM32.9181 106.894C7.4095 52.1647 31.0799 -12.8721 85.7875 -38.3704C140.496 -63.8691 205.524 -40.1733 231.032 14.5564C241.374 36.7447 231.773 63.1148 209.591 73.4533C187.408 83.7925 161.041 74.1862 150.699 51.9982C145.873 41.6421 133.57 37.1657 123.229 41.9859C112.888 46.8056 108.404 59.1057 113.231 69.4618C126.195 97.2774 152.194 114.868 180.611 118.336C187.092 119.127 191.705 125.022 190.914 131.504C190.123 137.985 184.228 142.598 177.746 141.807C141.575 137.393 108.356 114.975 91.799 79.4508C81.4575 57.2628 91.0577 30.8927 113.24 20.5541C135.422 10.215 161.79 19.8212 172.131 42.0092C176.958 52.3654 189.26 56.8418 199.602 52.0216C209.943 47.2018 214.427 34.9013 209.6 24.5454C189.605 -18.3554 138.641 -36.917 95.7765 -16.9387C52.9131 3.03927 34.3544 54.0043 54.3499 96.9053C59.0471 106.983 64.7548 116.284 71.2581 124.804C75.2199 129.995 74.224 137.414 69.0338 141.375C63.8436 145.337 56.4244 144.341 52.4626 139.151C44.9687 129.334 38.3637 118.578 32.9181 106.894ZM109.481 12.5342C82.8791 24.9327 71.3609 56.5624 83.7725 83.1919C94.4231 106.043 111.438 123.845 131.732 135.556C137.387 138.82 139.326 146.05 136.062 151.706C132.798 157.361 125.568 159.3 119.913 156.036C95.5661 141.985 75.1154 120.589 62.3407 93.1809C44.4166 54.7241 61.0446 9.02199 99.4917 -8.89759C137.938 -26.817 183.63 -10.1608 201.554 28.2958C204.312 34.214 201.751 41.2478 195.833 44.0062C189.914 46.7646 182.88 44.203 180.122 38.2848C167.71 11.6552 136.082 0.135947 109.481 12.5342ZM126.974 50.0138C132.892 47.2554 139.926 49.817 142.685 55.7352C155.096 82.3649 186.725 93.8845 213.326 81.4863C213.732 81.2972 213.988 81.1557 214.461 80.8942C214.782 80.7168 215.203 80.4841 215.838 80.1439C221.594 77.0615 228.759 79.2289 231.841 84.985C234.924 90.7411 232.756 97.9062 227 100.989C226.902 101.041 226.754 101.123 226.57 101.224C225.827 101.633 224.485 102.373 223.315 102.918C184.868 120.838 139.177 104.181 121.253 65.7242C118.494 59.806 121.056 52.7722 126.974 50.0138Z" fill="#1D7A85"/>
</svg>
