<svg xmlns="http://www.w3.org/2000/svg" width="48" height="48" viewBox="0 0 48 48" fill="none">
  <g clip-path="url(#clip0_1022_9871)">
    <path d="M30.347 0.858057C32.3575 1.41112 34.2882 2.22118 36.0915 3.2682C37.8673 4.30319 39.5016 5.56371 40.9538 7.01833C42.4069 8.47041 43.6709 10.1002 44.7157 11.8689C46.8664 15.5433 48 19.7242 48 23.9818C48 28.2395 46.8664 32.4203 44.7157 36.0947C42.6204 39.6558 39.6522 42.6242 36.0915 44.7197C32.408 46.8779 28.2139 48.0105 23.9448 47.9999C19.6971 48.0079 15.5252 46.8751 11.8648 44.7197C10.0971 43.6749 8.46846 42.4108 7.01769 40.9575C5.56297 39.5053 4.30254 37.8708 3.2679 36.0947C2.22097 34.2913 1.41098 32.3604 0.857966 30.3498C0.282714 28.2643 -0.00589569 26.1103 9.12607e-05 23.947C-0.00498274 21.7977 0.283646 19.6577 0.857966 17.5866C1.95987 13.5888 4.08057 9.94555 7.01261 7.01325C9.94464 4.08095 13.5876 1.96005 17.585 0.858057C19.6558 0.283013 21.7957 -0.00565329 23.9448 0.000105426C26.108 -0.00633471 28.2619 0.282309 30.347 0.858057ZM18.4884 4.09584C15.0477 5.04161 11.9118 6.86531 9.38811 9.38816C6.86443 11.911 5.03957 15.0464 4.09243 18.487C3.60195 20.2643 3.35617 22.1002 3.36187 23.9439C3.35589 25.8028 3.60268 27.6539 4.09546 29.4463C4.57236 31.1798 5.27025 32.8447 6.17194 34.4C7.062 35.9253 8.14505 37.3294 9.39428 38.5776C10.6471 39.831 12.0526 40.9218 13.5776 41.8245C15.9518 43.2082 18.5781 44.1048 21.3028 44.4619C24.0275 44.819 26.7961 44.6294 29.4467 43.9042C32.902 42.954 36.0493 41.1179 38.5772 38.5776C39.831 37.3237 40.9208 35.9159 41.8207 34.3879C43.6754 31.2205 44.6488 27.6145 44.6399 23.9439C44.6455 20.2982 43.673 16.7177 41.8238 13.5758C40.9223 12.0507 39.8326 10.6451 38.5802 9.3921C37.3304 8.14221 35.9243 7.05904 34.3969 6.16948C32.8424 5.26857 31.1787 4.57066 29.4467 4.09281C27.6544 3.60039 25.8035 3.35358 23.9448 3.35915C22.101 3.35569 20.2653 3.60353 18.4884 4.09584ZM27.0974 34.7002V14.8187H22.805L16.2633 19.6208L18.7066 22.9647L22.4109 20.0998V34.7002H27.0974Z" fill="#FFC3A9"/>
  </g>
  <defs>
    <clipPath id="clip0_1022_9871">
      <rect width="48" height="48" fill="white"/>
    </clipPath>
  </defs>
</svg>