<svg xmlns="http://www.w3.org/2000/svg" width="48" height="48" viewBox="0 0 48 48" fill="none">
  <g clip-path="url(#clip0_1022_9877)">
    <path d="M30.3353 0.854758C34.3461 1.96143 38.002 4.08739 40.9473 7.02575C43.8925 9.9641 46.0268 13.6148 47.1424 17.6224C48.2859 21.7806 48.2859 26.1703 47.1424 30.3285C46.034 34.335 43.9028 37.9845 40.9579 40.9189C39.4972 42.379 37.8571 43.648 36.0771 44.6956C34.2769 45.7555 32.3455 46.5748 30.3322 47.1325C27.2547 47.9887 24.0358 48.2141 20.8689 47.7954C17.702 47.3766 14.6524 46.3222 11.9032 44.6956C10.1316 43.645 8.49897 42.3762 7.04361 40.9189C4.09807 37.9845 1.96589 34.3351 0.856149 30.3285C-0.285383 26.169 -0.285383 21.7789 0.856149 17.6194C1.97154 13.6192 4.10072 9.97459 7.03766 7.03818C9.97461 4.10176 13.6199 1.97297 17.6208 0.857789C21.7807 -0.28593 26.1723 -0.28593 30.3322 0.857789L30.3353 0.854758ZM18.5272 4.0919C16.8033 4.571 15.1485 5.27091 13.604 6.17421C10.5364 7.98096 7.97937 10.5386 6.17355 13.6063C5.26896 15.1503 4.5679 16.8049 4.08782 18.5287C3.11102 22.0952 3.11102 25.8587 4.08782 29.4252C4.566 31.1526 5.26714 32.8104 6.17355 34.3567C7.07355 35.8835 8.1635 37.2899 9.41734 38.5426C10.6757 39.8002 12.0862 40.8958 13.6161 41.804C15.155 42.7121 16.806 43.4152 18.5272 43.8954C22.0945 44.8714 25.8585 44.8714 29.4258 43.8954C31.1581 43.4139 32.8202 42.7088 34.3703 41.7979C35.9029 40.8934 37.3156 39.7997 38.5751 38.5426C39.8292 37.2891 40.9192 35.8815 41.8189 34.3537C42.7241 32.8071 43.4242 31.1494 43.9016 29.4222C44.879 25.8558 44.879 22.0921 43.9016 18.5257C42.9404 15.0747 41.1019 11.9312 38.5652 9.40134C36.0284 6.87144 32.8798 5.04124 29.4258 4.08887C25.8588 3.11106 22.0943 3.11409 18.5272 4.0919ZM31.654 30.8165V26.9974H28.9013V14.8157H23.2626L15.1743 26.858V30.8165H24.5237V34.6901H28.9347V30.8165H31.654ZM24.548 26.9974H19.755L24.4722 19.6441H24.554L24.548 26.9974Z" fill="#FFC3A9"/>
  </g>
  <defs>
    <clipPath id="clip0_1022_9877">
      <rect width="48" height="48" fill="white"/>
    </clipPath>
  </defs>
</svg>