<svg width="524" height="8" viewBox="0 0 524 8" fill="none" xmlns="http://www.w3.org/2000/svg">
<path d="M522.925 5.2526C522.435 6.24768 521.842 7.00547 521.189 7.47065C520.537 7.93583 519.84 8.09754 519.149 7.94341C516.032 7.67983 7.88434 8.24032 4.82404 7.76427L2.70026 7.43671C2.12305 7.40799 1.55487 7.1099 1.03949 6.56414C0.767029 6.23853 -0.145691 4.75204 0.0199585 3.69207C0.26886 2.51123 0.709656 1.54774 1.26788 0.963144C1.62659 0.652446 2.02148 0.551149 2.40912 0.670916C2.51282 0.682967 2.61542 0.694279 2.71356 0.696496C3.71747 0.720786 4.72192 0.738727 5.72656 0.750791C8.59637 0.793542 516.547 -0.21493 519.465 0.0419546C520.37 0.217601 521.262 0.64119 522.115 1.30205C522.592 1.61679 523.085 1.94181 523.631 2.24347L524 2.44566L523.788 3.08933C523.536 3.86738 523.247 4.5923 522.925 5.2526Z" fill="#F79F79"/>
</svg>
