<svg width="216" height="216" viewBox="0 0 216 216" fill="none" xmlns="http://www.w3.org/2000/svg">
<g id="Rays">
<path id="Vector" d="M118.749 169.802C119.135 169.119 119.664 168.521 120.3 168.049C120.937 167.576 121.667 167.238 122.445 167.056C127.463 165.603 129.224 169.721 130.498 172.696L130.597 172.92C131.919 176.002 133.035 179.136 134.329 182.769C134.917 184.423 135.541 186.179 136.234 188.063C136.754 189.238 137.344 190.501 137.966 191.837C139.961 195.911 141.707 200.096 143.196 204.37C143.949 206.667 142.934 211.161 140.91 212.447C140.46 212.773 139.942 212.999 139.393 213.11C138.845 213.221 138.278 213.215 137.731 213.091C135.758 212.579 134.485 210.432 133.446 208.462C132.564 206.787 131.625 205.144 130.685 203.492C129.1 200.712 127.459 197.834 126.126 194.866L125.754 194.024C123.523 188.979 121.315 183.302 118.841 176.253C118.381 175.238 118.135 174.144 118.12 173.035C118.104 171.926 118.318 170.827 118.749 169.802Z" fill="#F79F79"/>
<path id="Vector_2" d="M168.72 59.046C163.967 63.6006 159.074 68.1631 154.35 72.5761L149.236 77.351C149.031 77.5488 148.827 77.7733 148.625 78.001C148.119 78.7143 147.397 79.2555 146.57 79.5424C145.945 79.6776 145.282 79.8568 144.61 80.0391C142.181 80.6928 139.669 81.3695 137.893 80.452C137.393 80.2001 136.938 79.8735 136.543 79.4835C135.998 78.9402 135.617 78.2564 135.44 77.5026C134.892 75.2159 136.164 72.6429 137.329 70.8896C138.673 68.9798 140.171 67.1759 141.807 65.4958C142.374 64.8824 142.94 64.2691 143.492 63.6487L143.051 62.7777L143.652 62.3971C145.41 61.2817 147.158 60.144 148.906 59.0071C153.487 56.0233 158.225 52.9416 163.117 50.3179C164.475 49.7779 165.933 49.5795 167.355 49.7409C168.777 49.9023 170.118 50.4184 171.251 51.2409C171.625 51.5763 171.924 51.9841 172.132 52.4411C172.34 52.8982 172.452 53.3956 172.462 53.9047C172.387 55.6784 170.801 57.1309 169.401 58.4127C169.161 58.6346 168.929 58.8461 168.72 59.046Z" fill="#F79F79"/>
<path id="Vector_3" d="M86.4482 67.5884C85.0573 66.1992 83.9996 64.5199 83.3523 62.6715C82.7049 60.8231 82.4831 58.8511 82.7036 56.898C83.0937 48.0794 83.8064 39.131 84.4938 30.4751L84.967 24.4677C85.0111 22.835 85.4325 21.2287 86.2006 19.7724C86.6586 19.0028 88.7473 16.4259 90.2313 16.8981C91.884 17.6061 93.2309 18.8559 94.0462 20.4371C94.4791 21.4528 94.6184 22.5705 94.448 23.6668C94.4304 23.96 94.4139 24.2503 94.4101 24.528C94.3693 27.368 94.3375 30.2093 94.3138 33.0512C94.2347 41.1699 94.1511 49.5631 93.7716 57.817C93.5195 60.378 92.92 62.8985 91.9884 65.3104C91.5443 66.6585 91.0856 68.0515 90.6593 69.5968L90.3736 70.6394L89.4732 70.0374C88.3848 69.3216 87.3711 68.5008 86.4482 67.5884Z" fill="#F79F79"/>
<path id="Vector_4" d="M10.7347 46.4217C12.6901 47.5044 14.4915 48.8278 16.0972 50.3608C21.4429 55.9771 26.7057 61.8365 31.7953 67.5032C33.6444 69.562 35.4955 71.6173 37.3488 73.6702C37.4751 73.808 37.6238 73.9426 37.7672 74.0847C38.3792 74.534 38.794 75.1915 38.9335 75.9317C38.9565 76.4783 39.015 77.0622 39.0743 77.6555C39.2813 79.7332 39.4947 81.8823 38.4201 83.3026C38.1042 83.7775 37.6837 84.1778 37.1902 84.4728C36.6974 84.7688 36.1441 84.9516 35.572 85.0078C34.6359 84.968 33.7217 84.7328 32.8918 84.3191C32.0605 83.9045 31.3321 83.3207 30.7539 82.6059L30.6094 82.4627C28.4868 80.304 26.3377 78.1708 24.1886 76.0357C19.3149 71.1929 14.2719 66.1845 9.62035 60.9802C6.39421 57.3727 3.49048 52.6298 6.41374 44.814L6.77076 43.8594L7.61126 44.4334C8.7005 45.1718 9.74661 45.8156 10.7347 46.4217Z" fill="#F79F79"/>
<path id="Vector_5" d="M142.127 135.871L141.14 135.612L141.677 134.745C145.855 128.015 147.316 126.726 154.702 127.082C163.857 127.523 173.665 128.348 184.676 129.598C186.223 129.986 187.604 130.836 188.631 132.033C189.111 132.496 189.616 132.932 190.145 133.341L190.89 133.889L190.194 134.513C189.708 134.97 189.249 135.454 188.82 135.963C187.705 137.228 186.551 138.535 185.13 138.65C173.54 139.569 158.176 140.087 142.127 135.871Z" fill="#F79F79"/>
</g>
</svg>
