<svg xmlns="http://www.w3.org/2000/svg" width="48" height="48" viewBox="0 0 48 48" fill="none">
  <g clip-path="url(#clip0_1022_9873)">
    <path d="M30.347 0.858057C32.3575 1.41112 34.2882 2.22118 36.0915 3.2682C37.8673 4.30319 39.5016 5.56371 40.9538 7.01833C42.4069 8.47041 43.6709 10.1002 44.7157 11.8689C46.8664 15.5433 48 19.7242 48 23.9818C48 28.2395 46.8664 32.4203 44.7157 36.0947C42.6204 39.6558 39.6522 42.6242 36.0915 44.7197C32.408 46.8779 28.2139 48.0105 23.9448 47.9999C19.6971 48.0079 15.5252 46.8751 11.8648 44.7197C10.0971 43.6749 8.46846 42.4108 7.01769 40.9575C5.56297 39.5053 4.30254 37.8708 3.2679 36.0947C2.22097 34.2913 1.41098 32.3604 0.857966 30.3498C0.282714 28.2643 -0.00589569 26.1103 9.12607e-05 23.947C-0.00498274 21.7977 0.283646 19.6577 0.857966 17.5866C1.95987 13.5888 4.08057 9.94555 7.01261 7.01325C9.94464 4.08095 13.5876 1.96005 17.585 0.858057C19.6558 0.283013 21.7957 -0.00565329 23.9448 0.000105426C26.108 -0.00633471 28.2619 0.282309 30.347 0.858057ZM18.4884 4.09584C15.0477 5.04161 11.9118 6.86531 9.38811 9.38816C6.86443 11.911 5.03957 15.0464 4.09243 18.487C3.60195 20.2643 3.35617 22.1002 3.36187 23.9439C3.35589 25.8028 3.60268 27.6539 4.09546 29.4463C4.57239 31.1798 5.27028 32.8447 6.17194 34.4C7.062 35.9253 8.14505 37.3294 9.39428 38.5776C10.6471 39.831 12.0526 40.9218 13.5776 41.8245C15.9518 43.2082 18.5781 44.1048 21.3028 44.4619C24.0275 44.819 26.7961 44.6294 29.4467 43.9042C32.902 42.954 36.0493 41.1179 38.5772 38.5776C39.831 37.3237 40.9209 35.9159 41.8207 34.3879C43.6754 31.2205 44.6488 27.6145 44.6399 23.9439C44.6455 20.2982 43.673 16.7177 41.8238 13.5758C40.9223 12.0507 39.8326 10.6451 38.5802 9.3921C37.3304 8.14221 35.9243 7.05904 34.3969 6.16948C32.8424 5.2686 31.1787 4.57069 29.4467 4.09281C27.6544 3.60039 25.8035 3.35358 23.9448 3.35915C22.101 3.35569 20.2653 3.60353 18.4884 4.09584ZM31.1473 34.7002V30.6014H23.0293L27.637 26.4996C28.0857 26.0893 28.5201 25.673 28.9405 25.2506C29.3587 24.8344 29.7353 24.3785 30.0651 23.8894C30.3946 23.399 30.6547 22.8654 30.8381 22.3038C31.0326 21.681 31.1268 21.0312 31.117 20.3787C31.1387 19.4446 30.9316 18.5194 30.5138 17.6836C30.1265 16.9339 29.5753 16.2811 28.9011 15.7737C28.2092 15.2604 27.428 14.8801 26.5973 14.652C25.729 14.4085 24.8314 14.286 23.9297 14.2882C22.9905 14.2827 22.0568 14.4301 21.1651 14.7247C20.3211 15.0027 19.5359 15.4344 18.8491 15.998C18.1705 16.5602 17.6039 17.2452 17.1788 18.0171C16.7255 18.8522 16.4441 19.7696 16.3513 20.7152L20.871 21.3337C20.9249 20.5328 21.2352 19.7706 21.7562 19.16C22.2363 18.6608 22.8896 18.3646 23.5815 18.3325C24.2734 18.3003 24.9513 18.5347 25.4757 18.9872C25.7014 19.2129 25.8778 19.4831 25.9936 19.7805C26.1095 20.078 26.1623 20.3963 26.1486 20.7152C26.1551 21.2874 25.9996 21.8497 25.7 22.3372C25.3691 22.8621 24.9728 23.343 24.5208 23.7681L16.7726 30.7742V34.7002H31.1473Z" fill="#FFC3A9"/>
  </g>
  <defs>
    <clipPath id="clip0_1022_9873">
      <rect width="48" height="48" fill="white"/>
    </clipPath>
  </defs>
</svg>