<svg xmlns="http://www.w3.org/2000/svg" width="48" height="48" viewBox="0 0 48 48" fill="none">
  <g clip-path="url(#clip0_1022_9875)">
    <path d="M30.3592 0.857989C34.3669 1.96874 38.0189 4.09783 40.9598 7.03816C43.9008 9.97849 46.0306 13.6299 47.1421 17.6373C48.286 21.8105 48.286 26.2145 47.1421 30.3877C46.038 34.393 43.906 38.0402 40.9577 40.9676C39.4995 42.4168 37.8648 43.6767 36.092 44.7176C34.2954 45.7712 32.3693 46.5865 30.3623 47.1428C26.1878 48.2857 21.7828 48.2857 17.6083 47.1428C13.6072 46.0334 9.96142 43.9072 7.02573 40.9711C4.09004 38.0349 1.96442 34.3889 0.855734 30.3877C-0.285245 26.21 -0.285245 21.8028 0.855734 17.6252C1.41362 15.6216 2.22883 13.6988 3.28101 11.9047C4.32079 10.1348 5.57975 8.50307 7.02806 7.04829C9.24946 4.80865 11.8935 3.03236 14.8067 1.82245C17.7199 0.612548 20.8444 -0.00688741 23.9989 7.7972e-05C26.1482 -0.00545204 28.2882 0.283197 30.3592 0.857989ZM18.5148 4.09259C15.0676 5.0407 11.9289 6.87496 9.4109 9.41285C8.16132 10.6705 7.07458 12.08 6.17618 13.6084C5.2716 15.1527 4.57053 16.8075 4.09045 18.5316C3.11348 22.1171 3.11348 25.8988 4.09045 29.4843C4.56863 31.212 5.26977 32.87 6.17618 34.4166C8.89694 39.065 13.3235 42.4691 18.5148 43.9051C22.0964 44.8821 25.8742 44.8821 29.4558 43.9051C31.1841 43.4258 32.843 42.7247 34.3912 41.8195C35.9193 40.9205 37.3288 39.8338 38.587 38.5849C41.1233 36.0674 42.9565 32.9299 43.9044 29.4843C44.8834 25.9021 44.8834 22.1229 43.9044 18.5407C43.4264 16.8134 42.7263 15.1555 41.8217 13.6084C40.0149 10.54 37.4568 7.98194 34.3882 6.17522C32.841 5.27078 31.183 4.57074 29.4558 4.09259C25.8735 3.11362 22.0971 3.11362 18.5148 4.09259ZM31.2172 27.338C31.0323 26.8481 30.7658 26.393 30.429 25.9921C30.0848 25.5842 29.6774 25.2342 29.2224 24.9553C28.7459 24.6623 28.2246 24.4493 27.6793 24.3247V24.2368C28.622 23.9948 29.4631 23.4585 30.0803 22.7059C30.7178 21.9155 31.0512 20.9229 31.0201 19.9079C31.0418 19.0396 30.8337 18.181 30.4168 17.419C30.0222 16.7248 29.4812 16.1248 28.8313 15.6607C28.1559 15.1825 27.4002 14.8293 26.6 14.6179C25.7615 14.3941 24.8971 14.2819 24.0293 14.2845C23.2131 14.283 22.4005 14.3911 21.6131 14.6058C20.8448 14.8136 20.1121 15.1355 19.4394 15.5607C18.7764 15.9796 18.1916 16.511 17.7114 17.131C17.2091 17.7901 16.8376 18.5392 16.617 19.3379L20.9977 20.3474C21.1237 19.7126 21.4667 19.1414 21.9678 18.7316C22.4624 18.3302 23.0831 18.1166 23.72 18.1284C24.3468 18.12 24.9587 18.3193 25.4602 18.6953C25.711 18.8851 25.9113 19.1337 26.0435 19.4192C26.1756 19.7046 26.2356 20.0182 26.2181 20.3323C26.2461 20.7215 26.1586 21.1103 25.9667 21.4501C25.7747 21.7898 25.4867 22.0653 25.1388 22.2421C24.7926 22.4261 24.4172 22.5491 24.0293 22.6059C23.6021 22.6732 23.1702 22.7067 22.7378 22.7059H21.3614V26.1315H22.6256C23.1144 26.1321 23.6023 26.1747 24.0838 26.2588C24.5371 26.3311 24.9767 26.4722 25.3874 26.6772C25.7596 26.8621 26.0796 27.1372 26.3181 27.4775C26.5622 27.8527 26.684 28.2943 26.6667 28.7416C26.6812 29.1508 26.5904 29.5568 26.403 29.9209C26.2373 30.2252 26.0065 30.4892 25.7269 30.6939C25.4477 30.8935 25.1343 31.0404 24.8023 31.1274C24.4676 31.2203 24.122 31.2682 23.7746 31.2699C22.9695 31.3011 22.1809 31.0357 21.5585 30.5241C21.0097 30.0769 20.6083 29.4748 20.4065 28.7962L16.0258 29.9482C16.4624 31.6371 17.5473 33.0859 19.0453 33.98C19.7699 34.4104 20.5561 34.7274 21.3766 34.9198C22.2364 35.1259 23.1178 35.2287 24.002 35.226C24.9174 35.2267 25.8285 35.1001 26.7092 34.8501C27.5711 34.6104 28.3839 34.2205 29.1102 33.6981C29.8248 33.1808 30.4151 32.5108 30.8382 31.7367C31.2963 30.8691 31.5238 29.8983 31.4991 28.9174C31.5024 28.3772 31.4068 27.8439 31.2172 27.338Z" fill="#FFC3A9"/>
  </g>
  <defs>
    <clipPath id="clip0_1022_9875">
      <rect width="48" height="48" fill="white"/>
    </clipPath>
  </defs>
</svg>