<svg xmlns="http://www.w3.org/2000/svg" width="16" height="16" viewBox="0 0 16 16" fill="none">
  <path fill-rule="evenodd" clip-rule="evenodd" d="M7.99992 1.33203C8.36811 1.33203 8.66659 1.63051 8.66659 1.9987V8.38922L10.1952 6.86063C10.4555 6.60028 10.8776 6.60028 11.138 6.86063C11.3983 7.12098 11.3983 7.54309 11.138 7.80344L8.47132 10.4701C8.21097 10.7305 7.78886 10.7305 7.52851 10.4701L4.86185 7.80344C4.6015 7.54309 4.6015 7.12098 4.86185 6.86063C5.1222 6.60028 5.54431 6.60028 5.80466 6.86063L7.33325 8.38922V1.9987C7.33325 1.63051 7.63173 1.33203 7.99992 1.33203ZM1.99992 9.33203C2.36811 9.33203 2.66659 9.63051 2.66659 9.9987V11.332C2.66659 11.7002 2.96506 11.9987 3.33325 11.9987H12.6666C13.0348 11.9987 13.3333 11.7002 13.3333 11.332V9.9987C13.3333 9.63051 13.6317 9.33203 13.9999 9.33203C14.3681 9.33203 14.6666 9.63051 14.6666 9.9987V11.332C14.6666 12.4366 13.7712 13.332 12.6666 13.332H3.33325C2.22869 13.332 1.33325 12.4366 1.33325 11.332V9.9987C1.33325 9.63051 1.63173 9.33203 1.99992 9.33203Z" fill="#444444"/>
</svg>