<svg xmlns="http://www.w3.org/2000/svg" width="434" height="184" viewBox="0 0 434 184" fill="none">
  <path fill-rule="evenodd" clip-rule="evenodd" d="M0.931252 89.7056C5.37109 24.5884 36.5873 -38.5163 92.5692 -81.4072C148.55 -124.297 217.603 -138.015 281.633 -125.356C293.005 -123.108 300.401 -112.066 298.153 -100.694C295.905 -89.3222 284.863 -81.9258 273.491 -84.1741C220.72 -94.6068 164.052 -83.2903 118.1 -48.084C72.1466 -12.8765 46.4724 38.8942 42.8132 92.5612C42.0247 104.127 32.0098 112.863 20.4444 112.074C8.87904 111.286 0.1427 101.271 0.931252 89.7056ZM91.7169 236.464C26.5198 151.368 42.6237 29.5535 127.686 -35.6174C212.749 -100.789 334.557 -84.6378 399.754 0.458697C426.186 34.9581 419.651 84.3508 385.162 110.775C350.671 137.2 301.281 130.655 274.849 96.1557C262.512 80.0535 239.471 77.0091 223.391 89.329C207.312 101.648 204.254 124.689 216.591 140.791C249.727 184.04 301.538 204.567 352.128 199.687C363.666 198.574 373.923 207.025 375.036 218.564C376.149 230.103 367.697 240.359 356.159 241.472C291.763 247.684 225.586 221.556 183.268 166.321C156.836 131.822 163.37 82.4301 197.86 56.0058C232.351 29.5802 281.741 36.126 308.172 70.625C320.509 86.7272 343.551 89.7716 359.631 77.4517C375.71 65.1327 378.768 42.0913 366.431 25.9895C315.325 -40.7148 219.864 -53.3566 153.217 -2.29425C86.5705 48.7671 73.934 144.229 125.04 210.933C137.046 226.603 150.505 240.539 165.044 252.815C173.901 260.294 175.019 273.537 167.54 282.394C160.061 291.251 146.819 292.368 137.962 284.89C121.208 270.743 105.635 254.63 91.7169 236.464ZM188.27 43.544C146.908 75.2334 139.065 134.478 170.788 175.883C198.01 211.413 234.329 235.75 273.997 248.274C285.051 251.764 291.183 263.555 287.693 274.609C284.203 285.663 272.413 291.796 261.358 288.306C213.767 273.28 170.115 244.03 137.465 201.414C91.6527 141.62 102.96 56.0213 162.739 10.2209C222.518 -35.5791 308.108 -24.2192 353.92 35.575C360.97 44.777 359.226 57.9518 350.024 65.002C340.822 72.0521 327.647 70.3077 320.597 61.1058C288.874 19.7008 229.63 11.8556 188.27 43.544ZM232.961 101.81C242.163 94.7596 255.338 96.504 262.388 105.706C294.11 147.111 353.355 154.957 394.715 123.268C395.346 122.785 395.736 122.441 396.455 121.807C396.944 121.376 397.584 120.812 398.555 119.979C407.352 112.429 420.603 113.44 428.153 122.236C435.702 131.033 434.692 144.285 425.895 151.834C425.744 151.964 425.52 152.161 425.239 152.408C424.108 153.402 422.065 155.198 420.246 156.592C360.467 202.392 274.876 191.031 229.064 131.237C222.014 122.035 223.759 108.86 232.961 101.81Z" fill="#D9E9EB"/>
</svg>