<svg width="14" height="13" viewBox="0 0 14 13" fill="none" xmlns="http://www.w3.org/2000/svg">
<path fill-rule="evenodd" clip-rule="evenodd" d="M6.99992 0.333008C7.36811 0.333008 7.66659 0.631485 7.66659 0.999674V7.3902L9.19518 5.8616C9.45553 5.60125 9.87764 5.60125 10.138 5.8616C10.3983 6.12195 10.3983 6.54406 10.138 6.80441L7.47132 9.47108C7.21097 9.73143 6.78886 9.73143 6.52851 9.47108L3.86185 6.80441C3.6015 6.54406 3.6015 6.12195 3.86185 5.8616C4.1222 5.60125 4.54431 5.60125 4.80466 5.8616L6.33325 7.3902V0.999674C6.33325 0.631485 6.63173 0.333008 6.99992 0.333008ZM0.999919 8.33301C1.36811 8.33301 1.66659 8.63148 1.66659 8.99967V10.333C1.66659 10.7012 1.96506 10.9997 2.33325 10.9997H11.6666C12.0348 10.9997 12.3333 10.7012 12.3333 10.333V8.99967C12.3333 8.63148 12.6317 8.33301 12.9999 8.33301C13.3681 8.33301 13.6666 8.63148 13.6666 8.99967V10.333C13.6666 11.4376 12.7712 12.333 11.6666 12.333H2.33325C1.22869 12.333 0.333252 11.4376 0.333252 10.333V8.99967C0.333252 8.63148 0.631729 8.33301 0.999919 8.33301Z" fill="#444444"/>
</svg>
