<svg width="24" height="24" viewBox="0 0 24 24" fill="none" xmlns="http://www.w3.org/2000/svg">
<g id="Filled/Instagram Icon">
<path id="Instagram" fill-rule="evenodd" clip-rule="evenodd" d="M1.19995 11.9992C1.19995 7.68505 1.19995 5.52797 2.22798 3.97428C2.68705 3.28049 3.28122 2.68631 3.97501 2.22725C5.5287 1.19922 7.68578 1.19922 12 1.19922C16.3141 1.19922 18.4712 1.19922 20.0249 2.22725C20.7187 2.68631 21.3129 3.28049 21.7719 3.97428C22.8 5.52797 22.8 7.68505 22.8 11.9992C22.8 16.3134 22.8 18.4705 21.7719 20.0242C21.3129 20.718 20.7187 21.3121 20.0249 21.7712C18.4712 22.7992 16.3141 22.7992 12 22.7992C7.68578 22.7992 5.5287 22.7992 3.97501 21.7712C3.28122 21.3121 2.68705 20.718 2.22798 20.0242C1.19995 18.4705 1.19995 16.3134 1.19995 11.9992ZM17.5915 11.9996C17.5915 15.0875 15.0882 17.5909 12.0002 17.5909C8.91221 17.5909 6.4089 15.0875 6.4089 11.9996C6.4089 8.91158 8.91221 6.40827 12.0002 6.40827C15.0882 6.40827 17.5915 8.91158 17.5915 11.9996ZM12.0002 15.6992C14.0434 15.6992 15.6998 14.0428 15.6998 11.9996C15.6998 9.95633 14.0434 8.29996 12.0002 8.29996C9.95696 8.29996 8.30059 9.95633 8.30059 11.9996C8.30059 14.0428 9.95696 15.6992 12.0002 15.6992ZM17.8123 7.44115C18.5379 7.44115 19.1261 6.85295 19.1261 6.12736C19.1261 5.40178 18.5379 4.81357 17.8123 4.81357C17.0867 4.81357 16.4985 5.40178 16.4985 6.12736C16.4985 6.85295 17.0867 7.44115 17.8123 7.44115Z" fill="#1D7A85"/>
</g>
</svg>
