<svg width="328" height="8" viewBox="0 0 328 8" fill="none" xmlns="http://www.w3.org/2000/svg">
<path d="M327.327 5.2526C327.02 6.24768 326.649 7.00547 326.241 7.47065C325.832 7.93583 325.396 8.09754 324.964 7.94341C323.012 7.67983 4.93524 8.24032 3.01965 7.76427L1.69025 7.43671C1.32895 7.40799 0.973297 7.1099 0.650696 6.56414C0.480164 6.23853 -0.0911865 4.75204 0.0125122 3.69207C0.168304 2.51123 0.444214 1.54774 0.79364 0.963144C1.01816 0.652446 1.26538 0.551149 1.50803 0.670916C1.57291 0.682967 1.63715 0.694279 1.69858 0.696496C2.32697 0.720786 2.95572 0.738727 3.58456 0.750791C5.38095 0.793542 323.335 -0.21493 325.161 0.0419546C325.728 0.217601 326.286 0.64119 326.82 1.30205C327.119 1.61679 327.427 1.94181 327.769 2.24347L328 2.44566L327.867 3.08933C327.709 3.86738 327.528 4.5923 327.327 5.2526Z" fill="#F79F79"/>
</svg>
