<svg xmlns="http://www.w3.org/2000/svg" width="848" height="8" viewBox="0 0 848 8" fill="none">
  <path d="M846.26 5.2526C845.467 6.24768 844.508 7.00547 843.452 7.47065C842.395 7.93583 841.267 8.09754 840.15 7.94341C835.104 7.67983 12.7593 8.24032 7.80688 7.76427L4.36981 7.43671C3.43579 7.40799 2.5163 7.1099 1.68225 6.56414C1.24133 6.23853 -0.23584 4.75204 0.0322876 3.69207C0.435059 2.51123 1.14838 1.54774 2.05182 0.963144C2.63232 0.652446 3.27142 0.551149 3.89874 0.670916C4.06653 0.682967 4.2326 0.694279 4.39142 0.696496C6.01605 0.720786 7.6416 0.738727 9.2674 0.750791C13.9117 0.793542 835.938 -0.21493 840.66 0.0419546C842.126 0.217601 843.568 0.64119 844.949 1.30205C845.721 1.61679 846.519 1.94181 847.403 2.24347L848 2.44566L847.657 3.08933C847.249 3.86738 846.781 4.5923 846.26 5.2526Z" fill="#F79F79"/>
</svg>