<svg width="24" height="24" viewBox="0 0 24 24" fill="none" xmlns="http://www.w3.org/2000/svg">
<g id="Filled/Link">
<rect width="24" height="24" rx="4" fill="#1D7A85"/>
<path id="Vector" d="M12.6288 16.4645C12.7126 16.5481 12.7792 16.6474 12.8246 16.7568C12.87 16.8662 12.8934 16.9835 12.8934 17.1019C12.8934 17.2203 12.87 17.3376 12.8246 17.447C12.7792 17.5564 12.7126 17.6557 12.6288 17.7393L12.1833 18.1848C11.3393 19.0288 10.1945 19.503 9.00079 19.503C7.8071 19.503 6.66231 19.0288 5.81825 18.1848C4.97419 17.3407 4.5 16.1959 4.5 15.0022C4.5 13.8085 4.97419 12.6637 5.81825 11.8197L7.62699 10.0117C8.43798 9.19869 9.52914 8.72655 10.677 8.69197C11.8248 8.6574 12.9424 9.06301 13.8008 9.82572C13.8895 9.9045 13.9617 9.99997 14.0134 10.1067C14.0652 10.2134 14.0954 10.3292 14.1024 10.4476C14.1093 10.566 14.0929 10.6846 14.054 10.7966C14.0152 10.9086 13.9546 11.0119 13.8758 11.1005C13.797 11.1892 13.7016 11.2614 13.5949 11.3131C13.4882 11.3649 13.3723 11.3951 13.2539 11.4021C13.1356 11.409 13.017 11.3926 12.905 11.3537C12.7929 11.3149 12.6896 11.2543 12.601 11.1755C12.0862 10.7183 11.4162 10.4751 10.728 10.4956C10.0398 10.5161 9.38547 10.7988 8.8988 11.2858L7.09156 13.0915C6.58521 13.5979 6.30074 14.2846 6.30074 15.0007C6.30074 15.7168 6.58521 16.4036 7.09156 16.9099C7.59792 17.4163 8.28469 17.7008 9.00079 17.7008C9.71688 17.7008 10.4036 17.4163 10.91 16.9099L11.3554 16.4645C11.439 16.3808 11.5383 16.3145 11.6475 16.2692C11.7567 16.2239 11.8738 16.2006 11.9921 16.2006C12.1104 16.2006 12.2275 16.2239 12.3367 16.2692C12.4459 16.3145 12.5452 16.3808 12.6288 16.4645ZM18.1839 5.81606C17.3392 4.97329 16.1947 4.5 15.0014 4.5C13.8082 4.5 12.6636 4.97329 11.8189 5.81606L11.3734 6.26149C11.2044 6.43054 11.1094 6.65982 11.1094 6.8989C11.1094 7.13797 11.2044 7.36725 11.3734 7.5363C11.5425 7.70536 11.7718 7.80033 12.0108 7.80033C12.2499 7.80033 12.4792 7.70536 12.6483 7.5363L13.0937 7.09087C13.6 6.58451 14.2868 6.30004 15.0029 6.30004C15.719 6.30004 16.4058 6.58451 16.9121 7.09087C17.4185 7.59723 17.703 8.28399 17.703 9.00009C17.703 9.71619 17.4185 10.403 16.9121 10.9093L15.1041 12.7181C14.617 13.2049 13.9623 13.4871 13.274 13.507C12.5856 13.527 11.9156 13.2831 11.4012 12.8253C11.3126 12.7465 11.2093 12.6859 11.0972 12.6471C10.9852 12.6082 10.8666 12.5918 10.7482 12.5988C10.6299 12.6057 10.514 12.6359 10.4073 12.6877C10.3006 12.7394 10.2052 12.8116 10.1264 12.9003C10.0476 12.9889 9.98704 13.0922 9.94817 13.2042C9.9093 13.3162 9.89288 13.4348 9.89984 13.5532C9.90681 13.6716 9.93702 13.7874 9.98875 13.8941C10.0405 14.0008 10.1127 14.0963 10.2014 14.1751C11.0592 14.9376 12.1761 15.3435 13.3233 15.3096C14.4706 15.2757 15.5616 14.8047 16.373 13.9929L18.1817 12.1849C19.0254 11.3403 19.4996 10.1955 19.5 9.00168C19.5004 7.80788 19.0271 6.66269 18.1839 5.81756V5.81606Z" fill="white"/>
</g>
</svg>
