<svg width="14" height="14" viewBox="0 0 14 14" fill="none" xmlns="http://www.w3.org/2000/svg">
<g id="plus">
<path id="Line 7 (Stroke)" fill-rule="evenodd" clip-rule="evenodd" d="M6.99996 0.332031C7.36815 0.332031 7.66663 0.630508 7.66663 0.998698L7.66663 12.9987C7.66663 13.3669 7.36815 13.6654 6.99996 13.6654C6.63177 13.6654 6.33329 13.3669 6.33329 12.9987L6.33329 0.998698C6.33329 0.630508 6.63177 0.332031 6.99996 0.332031Z" fill="#1E1E1E"/>
<path id="Line 8 (Stroke)" fill-rule="evenodd" clip-rule="evenodd" d="M0.333313 6.9987C0.333313 6.63051 0.63179 6.33203 0.99998 6.33203L13 6.33203C13.3682 6.33203 13.6666 6.63051 13.6666 6.9987C13.6666 7.36689 13.3682 7.66537 13 7.66537L0.999979 7.66536C0.63179 7.66536 0.333313 7.36689 0.333313 6.9987Z" fill="#1E1E1E"/>
</g>
</svg>
