<svg width="24" height="24" viewBox="0 0 24 24" fill="none" xmlns="http://www.w3.org/2000/svg">
<g id="Filled/Telegram Icon">
<path id="Telegram" d="M2.52445 11.3777C2.52445 11.3777 12.0776 7.45709 15.3908 6.07655C16.6609 5.52437 20.9681 3.75727 20.9681 3.75727C20.9681 3.75727 22.9561 2.98423 22.7904 4.86169C22.7351 5.63481 22.2934 8.34057 21.8517 11.2673C21.189 15.4088 20.4711 19.9369 20.4711 19.9369C20.4711 19.9369 20.3607 21.207 19.4219 21.4279C18.4832 21.6487 16.937 20.6548 16.6609 20.4339C16.44 20.2683 12.5194 17.7833 11.0836 16.5684C10.6971 16.2371 10.2553 15.5745 11.1388 14.8014C13.1268 12.9791 15.5012 10.7151 16.937 9.27938C17.5997 8.61669 18.2623 7.07053 15.5012 8.948C11.5806 11.6538 7.71519 14.194 7.71519 14.194C7.71519 14.194 6.83163 14.7462 5.17504 14.2492C3.51837 13.7522 1.58565 13.0896 1.58565 13.0896C1.58565 13.0896 0.260431 12.2613 2.52445 11.3777Z" fill="#1D7A85"/>
</g>
</svg>
