<svg width="632" height="274" viewBox="0 0 632 274" fill="none" xmlns="http://www.w3.org/2000/svg">
<g clip-path="url(#clip0_1153_9758)">
<path d="M554.844 166.9V96.9736C554.844 92.6799 554.967 88.0795 555.212 83.1724C555.579 78.1427 556.069 72.9289 556.681 67.5311L485.955 166.9H554.844ZM632 166.9V198.919C632 201.74 631.02 204.194 629.061 206.279C627.224 208.365 624.529 209.407 620.978 209.407H604.444V271.053H554.844V209.407H447.194C443.642 209.407 440.396 208.303 437.457 206.095C434.64 203.887 432.865 201.127 432.13 197.814L426.251 169.66L550.068 2.94141H604.444V166.9H632Z" fill="#81B5BB"/>
<path d="M419.793 136.908C419.793 160.339 417.282 180.642 412.261 197.817C407.24 214.992 400.259 229.223 391.319 240.509C382.501 251.795 371.968 260.199 359.721 265.719C347.597 271.24 334.431 274 320.225 274C306.019 274 292.853 271.24 280.729 265.719C268.727 260.199 258.317 251.795 249.499 240.509C240.681 229.223 233.762 214.992 228.74 197.817C223.841 180.642 221.392 160.339 221.392 136.908C221.392 113.477 223.841 93.1735 228.74 75.9986C233.762 58.8238 240.681 44.5932 249.499 33.3069C258.317 22.0206 268.727 13.6785 280.729 8.28072C292.853 2.76024 306.019 0 320.225 0C334.431 0 347.597 2.76024 359.721 8.28072C371.968 13.6785 382.501 22.0206 391.319 33.3069C400.259 44.5932 407.24 58.8238 412.261 75.9986C417.282 93.1735 419.793 113.477 419.793 136.908ZM361.007 136.908C361.007 118.384 359.844 103.233 357.517 91.456C355.19 79.5563 352.067 70.2328 348.148 63.4856C344.351 56.7383 340.004 52.1379 335.105 49.6843C330.206 47.1081 325.246 45.82 320.225 45.82C315.204 45.82 310.244 47.1081 305.345 49.6843C300.569 52.1379 296.282 56.7383 292.486 63.4856C288.812 70.2328 285.811 79.5563 283.484 91.456C281.28 103.233 280.177 118.384 280.177 136.908C280.177 155.555 281.28 170.767 283.484 182.544C285.811 194.321 288.812 203.645 292.486 210.514C296.282 217.262 300.569 221.923 305.345 224.5C310.244 226.953 315.204 228.18 320.225 228.18C325.246 228.18 330.206 226.953 335.105 224.5C340.004 221.923 344.351 217.262 348.148 210.514C352.067 203.645 355.19 194.321 357.517 182.544C359.844 170.767 361.007 155.555 361.007 136.908Z" fill="#81B5BB"/>
<path d="M128.593 166.9V96.9736C128.593 92.6799 128.715 88.0795 128.96 83.1724C129.328 78.1427 129.818 72.9289 130.43 67.5311L59.7039 166.9H128.593ZM205.749 166.9V198.919C205.749 201.74 204.769 204.194 202.809 206.279C200.972 208.365 198.278 209.407 194.727 209.407H178.193V271.053H128.593V209.407H20.9423C17.3907 209.407 14.1452 208.303 11.206 206.095C8.38916 203.887 6.61335 201.127 5.87854 197.814L0 169.66L123.817 2.94141H178.193V166.9H205.749Z" fill="#81B5BB"/>
<mask id="mask0_1153_9758" style="mask-type:alpha" maskUnits="userSpaceOnUse" x="0" y="0" width="632" height="274">
<path d="M554.844 166.9V96.9736C554.844 92.6799 554.967 88.0795 555.212 83.1724C555.579 78.1427 556.069 72.9289 556.681 67.5311L485.955 166.9H554.844ZM632 166.9V198.919C632 201.74 631.02 204.194 629.061 206.279C627.224 208.365 624.529 209.407 620.978 209.407H604.444V271.053H554.844V209.407H447.194C443.642 209.407 440.396 208.303 437.457 206.095C434.64 203.887 432.865 201.127 432.13 197.814L426.251 169.66L550.068 2.94141H604.444V166.9H632Z" fill="black"/>
<path d="M419.793 136.908C419.793 160.339 417.282 180.642 412.261 197.817C407.24 214.992 400.259 229.223 391.319 240.509C382.501 251.795 371.968 260.199 359.721 265.719C347.597 271.24 334.431 274 320.225 274C306.019 274 292.853 271.24 280.729 265.719C268.727 260.199 258.317 251.795 249.499 240.509C240.681 229.223 233.762 214.992 228.74 197.817C223.841 180.642 221.392 160.339 221.392 136.908C221.392 113.477 223.841 93.1735 228.74 75.9986C233.762 58.8238 240.681 44.5932 249.499 33.3069C258.317 22.0206 268.727 13.6785 280.729 8.28072C292.853 2.76024 306.019 0 320.225 0C334.431 0 347.597 2.76024 359.721 8.28072C371.968 13.6785 382.501 22.0206 391.319 33.3069C400.259 44.5932 407.24 58.8238 412.261 75.9986C417.282 93.1735 419.793 113.477 419.793 136.908ZM361.007 136.908C361.007 118.384 359.844 103.233 357.517 91.456C355.19 79.5563 352.067 70.2328 348.148 63.4856C344.351 56.7383 340.004 52.1379 335.105 49.6843C330.206 47.1081 325.246 45.82 320.225 45.82C315.204 45.82 310.244 47.1081 305.345 49.6843C300.569 52.1379 296.282 56.7383 292.486 63.4856C288.812 70.2328 285.811 79.5563 283.484 91.456C281.28 103.233 280.177 118.384 280.177 136.908C280.177 155.555 281.28 170.767 283.484 182.544C285.811 194.321 288.812 203.645 292.486 210.514C296.282 217.262 300.569 221.923 305.345 224.5C310.244 226.953 315.204 228.18 320.225 228.18C325.246 228.18 330.206 226.953 335.105 224.5C340.004 221.923 344.351 217.262 348.148 210.514C352.067 203.645 355.19 194.321 357.517 182.544C359.844 170.767 361.007 155.555 361.007 136.908Z" fill="black"/>
<path d="M128.593 166.9V96.9736C128.593 92.6799 128.715 88.0795 128.96 83.1724C129.328 78.1427 129.818 72.9289 130.43 67.5311L59.7039 166.9H128.593ZM205.749 166.9V198.919C205.749 201.74 204.769 204.194 202.809 206.279C200.972 208.365 198.278 209.407 194.727 209.407H178.193V271.053H128.593V209.407H20.9423C17.3907 209.407 14.1452 208.303 11.206 206.095C8.38916 203.887 6.61335 201.127 5.87854 197.814L0 169.66L123.817 2.94141H178.193V166.9H205.749Z" fill="black"/>
</mask>
<g mask="url(#mask0_1153_9758)">
<path fill-rule="evenodd" clip-rule="evenodd" d="M74.9129 -67.6869C134.91 -135.955 222.773 -179.305 320.883 -179.305C418.991 -179.305 506.853 -135.955 566.851 -67.6873C577.507 -55.5624 576.333 -37.08 564.229 -26.4057C552.124 -15.7315 533.673 -16.9075 523.017 -29.0325C473.568 -85.2972 401.415 -120.806 320.883 -120.806C240.348 -120.806 168.194 -85.297 118.747 -29.0328C108.091 -16.9077 89.6404 -15.7314 77.5358 -26.4054C65.4313 -37.0795 64.257 -55.5618 74.9129 -67.6869ZM51 171.596C51 22.209 171.847 -98.8913 320.921 -98.8913C469.997 -98.8913 590.845 22.2086 590.845 171.596C590.845 232.16 541.838 281.258 481.395 281.258C420.948 281.258 371.945 232.159 371.945 171.596C371.945 143.328 349.076 120.433 320.895 120.433C292.717 120.433 269.846 143.329 269.846 171.596C269.846 247.52 309.693 314.137 369.689 351.614C383.373 360.162 387.549 378.203 379.015 391.91C370.482 405.618 352.471 409.8 338.787 401.252C262.419 353.549 211.446 268.56 211.446 171.596C211.446 111.033 260.451 61.9337 320.895 61.9337C381.342 61.9337 430.345 111.033 430.345 171.596C430.345 199.864 453.214 222.759 481.395 222.759C509.574 222.759 532.445 199.863 532.445 171.596C532.445 54.4962 437.723 -40.3923 320.921 -40.3923C204.122 -40.3923 109.4 54.4958 109.4 171.596C109.4 199.105 112.472 225.927 118.141 251.829C121.595 267.608 111.625 283.204 95.872 286.664C80.1195 290.123 64.5499 280.136 61.0964 264.356C54.5639 234.509 51 203.487 51 171.596ZM320.848 40.021C248.361 40.021 189.574 98.9097 189.574 171.596C189.574 233.969 209.091 291.672 242.301 339.144C251.555 352.373 248.351 370.613 235.144 379.883C221.937 389.153 203.729 385.944 194.474 372.715C154.632 315.76 131.174 246.409 131.174 171.596C131.174 66.6265 216.083 -18.4779 320.848 -18.4779C425.612 -18.4779 510.519 66.6269 510.519 171.596C510.519 187.75 497.446 200.845 481.319 200.845C465.192 200.845 452.119 187.75 452.119 171.596C452.119 98.9092 393.333 40.021 320.848 40.021ZM320.903 142.349C337.03 142.349 350.103 155.445 350.103 171.599C350.103 244.286 408.89 303.175 481.375 303.175C482.48 303.175 483.201 303.125 484.533 303.033C485.436 302.971 486.621 302.889 488.398 302.79C504.5 301.894 518.278 314.243 519.173 330.372C520.067 346.501 507.739 360.303 491.638 361.199C491.362 361.214 490.947 361.242 490.428 361.277C488.338 361.419 484.561 361.674 481.375 361.674C376.61 361.674 291.704 276.568 291.704 171.599C291.704 155.445 304.777 142.349 320.903 142.349Z" fill="#ACCFD3"/>
</g>
</g>
<defs>
<clipPath id="clip0_1153_9758">
<rect width="632" height="274" fill="white"/>
</clipPath>
</defs>
</svg>
