<svg width="70" height="60" viewBox="0 0 70 60" fill="none" xmlns="http://www.w3.org/2000/svg">
<path d="M25.7399 29.5742L21.4831 20.3849C20.6047 18.493 18.7128 17.2768 16.6182 17.2768H15.9425C18.2398 16.6011 19.8615 14.5064 19.7263 12.0064C19.6587 10.5875 19.0506 9.30368 18.0371 8.35772C17.0236 7.41176 15.6722 6.93878 14.2533 7.00635C11.3478 7.14149 9.11807 9.57395 9.25321 12.4794C9.38835 14.7767 10.9424 16.6686 13.1046 17.2768H12.3614C10.2667 17.2768 8.37482 18.493 7.49643 20.3849L3.23962 29.5742C2.96935 30.1823 2.90178 30.9256 3.17206 31.5337C3.44233 32.2094 3.91531 32.6824 4.52342 32.9526C5.80722 33.5607 7.3613 32.9526 7.90184 31.6688L9.65863 27.885V31.8715L7.49643 49.169C7.42887 49.9123 7.63157 50.7231 8.10455 51.3312C8.57753 51.9394 9.25322 52.3448 9.99647 52.4123C11.6181 52.615 13.037 51.4664 13.1722 49.9123L14.5236 39.4392L15.8749 49.9123C16.0776 51.3312 17.2939 52.4123 18.7128 52.4123C18.8479 52.4123 18.9831 52.4123 19.0506 52.4123C19.7939 52.3448 20.4696 51.9394 20.9426 51.3312C21.4155 50.7231 21.6182 49.9799 21.5507 49.2366L19.3885 32.0067V27.9526L21.1453 31.7364C21.6858 32.9526 23.3074 33.5607 24.5237 33.0202C25.1318 32.7499 25.6048 32.2094 25.875 31.6013C26.0778 30.858 26.0777 30.1823 25.7399 29.5742ZM10.6722 12.4118C10.6046 10.2496 12.2262 8.42529 14.3884 8.35772C14.456 8.35772 14.5236 8.35772 14.5911 8.35772C15.5371 8.35772 16.483 8.69556 17.2263 9.37125C17.9695 10.0469 18.4425 11.0605 18.5101 12.074C18.5777 14.2362 16.956 16.0605 14.7938 16.1281C12.5641 16.1957 10.7397 14.574 10.6722 12.4118ZM24.5912 31.0607C24.4561 31.331 24.2534 31.6013 23.9831 31.7364C23.375 32.0067 22.6318 31.7364 22.3615 31.1283L19.3209 24.5741C19.1858 24.3039 18.8479 24.1687 18.5777 24.1687C18.2398 24.2363 18.0371 24.5066 18.0371 24.8444V32.0742L20.1993 49.3717C20.2669 49.7772 20.1317 50.1826 19.8615 50.5204C19.5912 50.8583 19.2533 51.061 18.8479 51.1285C18.0371 51.2637 17.2263 50.6556 17.1587 49.8447L15.1992 34.0337C15.1317 33.6959 14.8614 33.4256 14.5236 33.4256C14.1857 33.4256 13.9154 33.6959 13.8479 34.0337L11.8208 49.8447C11.6857 50.6556 11.01 51.2637 10.1316 51.1285C9.72619 51.061 9.38835 50.8583 9.11808 50.5204C8.8478 50.1826 8.78024 49.7772 8.78024 49.3717L11.01 32.0067V24.8444C11.01 24.5066 10.8073 24.2363 10.4694 24.1687C10.1316 24.1012 9.86133 24.2363 9.72619 24.5741L6.75318 31.1283C6.48291 31.7364 5.73966 32.0067 5.13154 31.7364C4.86127 31.6013 4.59099 31.331 4.52342 31.0607C4.38829 30.7229 4.45586 30.4526 4.59099 30.1148L8.78024 20.993C9.45592 19.5741 10.8749 18.6281 12.4289 18.6281H16.6857C18.2398 18.6281 19.6588 19.5741 20.3344 20.993L24.5912 30.1823C24.6588 30.4526 24.7264 30.7229 24.5912 31.0607Z" fill="#165C64"/>
<path d="M67.321 29.5742L63.0642 20.3849C62.1858 18.493 60.2938 17.2768 58.1992 17.2768H57.5235C59.8209 16.6011 61.4425 14.5064 61.3074 12.0064C61.2398 10.5875 60.6317 9.30368 59.6182 8.35772C58.6046 7.41176 57.2533 6.93878 55.8343 7.00635C52.9289 7.14149 50.6991 9.57395 50.8343 12.4794C50.9694 14.7767 52.5235 16.6686 54.6857 17.2768H53.9424C51.8478 17.2768 49.9559 18.493 49.0775 20.3849L44.8207 29.5742C44.5504 30.1823 44.4828 30.9256 44.7531 31.5337C45.0234 32.2094 45.4964 32.6824 46.1045 32.9526C47.3883 33.5607 48.9424 32.9526 49.4829 31.6688L51.2397 27.885V31.8715L49.0775 49.169C49.0099 49.9123 49.2126 50.7231 49.6856 51.3312C50.1586 51.9394 50.8343 52.3448 51.5775 52.4123C53.1992 52.615 54.6181 51.4664 54.7532 49.9123L56.1046 39.4392L57.456 49.9123C57.6587 51.3312 58.8749 52.4123 60.2938 52.4123C60.429 52.4123 60.5641 52.4123 60.6317 52.4123C61.3749 52.3448 62.0506 51.9394 62.5236 51.3312C62.9966 50.7231 63.1993 49.9799 63.1317 49.2366L60.9695 32.0067V27.9526L62.7263 31.7364C63.2669 32.9526 64.8885 33.5607 66.1047 33.0202C66.7129 32.7499 67.1858 32.2094 67.4561 31.6013C67.6588 30.858 67.6588 30.1823 67.321 29.5742ZM52.2532 12.4118C52.1856 10.2496 53.8073 8.42529 55.9695 8.35772C56.037 8.35772 56.1046 8.35772 56.1722 8.35772C57.1181 8.35772 58.0641 8.69556 58.8073 9.37125C59.5506 10.0469 60.0236 11.0605 60.0911 12.074C60.1587 14.2362 58.5371 16.0605 56.3749 16.1281C54.1451 16.1957 52.3208 14.574 52.2532 12.4118ZM66.1723 31.0607C66.0372 31.331 65.8345 31.6013 65.5642 31.7364C64.9561 32.0067 64.2128 31.7364 63.9425 31.1283L60.902 24.5741C60.7668 24.3039 60.429 24.1687 60.1587 24.1687C59.8209 24.2363 59.6182 24.5066 59.6182 24.8444V32.0742L61.7804 49.3717C61.8479 49.7772 61.7128 50.1826 61.4425 50.5204C61.1722 50.8583 60.8344 51.061 60.429 51.1285C59.6182 51.2637 58.8073 50.6556 58.7398 49.8447L56.7803 34.0337C56.7127 33.6959 56.4424 33.4256 56.1046 33.4256C55.7668 33.4256 55.4965 33.6959 55.4289 34.0337L53.4019 49.8447C53.2667 50.6556 52.591 51.2637 51.7127 51.1285C51.3072 51.061 50.9694 50.8583 50.6991 50.5204C50.4289 50.1826 50.3613 49.7772 50.3613 49.3717L52.5911 32.0067V24.8444C52.5911 24.5066 52.3883 24.2363 52.0505 24.1687C51.7127 24.1012 51.4424 24.2363 51.3072 24.5741L48.3342 31.1283C48.064 31.7364 47.3207 32.0067 46.7126 31.7364C46.4423 31.6013 46.172 31.331 46.1045 31.0607C45.9693 30.7229 46.0369 30.4526 46.172 30.1148L50.3613 20.993C51.037 19.5741 52.4559 18.6281 54.01 18.6281H58.2668C59.8209 18.6281 61.2398 19.5741 61.9155 20.993L66.1723 30.1823C66.2399 30.4526 66.3074 30.7229 66.1723 31.0607Z" fill="#165C64"/>
<path d="M29.5134 27.1355C29.5134 27.1185 29.5147 27.1051 29.5163 27.095H41.0406C41.0461 27.095 41.053 27.0961 41.0601 27.0988C41.0671 27.1015 41.0718 27.1048 41.0744 27.1071C41.0765 27.1091 41.0773 27.1104 41.0778 27.1116C41.0781 27.1123 41.0812 27.1189 41.0812 27.1355V29.6643C41.0771 29.6665 41.0723 29.6688 41.067 29.6708C41.0556 29.6749 41.0462 29.6761 41.0406 29.6761H29.5134V27.1355Z" stroke="#165C64"/>
<path d="M29.5134 33.5545C29.5134 33.5375 29.5147 33.5241 29.5163 33.5139H41.0406C41.0461 33.5139 41.053 33.515 41.0601 33.5177C41.0671 33.5204 41.0718 33.5237 41.0744 33.5261C41.0765 33.5281 41.0773 33.5294 41.0778 33.5305C41.0781 33.5313 41.0812 33.5379 41.0812 33.5545V36.0832C41.0771 36.0855 41.0723 36.0877 41.067 36.0897C41.0556 36.0939 41.0462 36.095 41.0406 36.095H29.5134V33.5545Z" stroke="#165C64"/>
</svg>
