<svg width="210" height="168" viewBox="0 0 210 168" fill="none" xmlns="http://www.w3.org/2000/svg">
<path fill-rule="evenodd" clip-rule="evenodd" d="M77.7672 6.27352C113.068 -3.99332 152.491 0.291693 186.021 21.5912C219.551 42.8903 240.184 76.7551 245.893 113.072C246.907 119.523 242.5 125.574 236.05 126.588C229.6 127.602 223.549 123.195 222.535 116.745C217.829 86.8127 200.866 59.0334 173.343 41.5501C145.819 24.0661 113.464 20.5165 84.3706 28.978C78.1009 30.8015 71.5401 27.1972 69.7166 20.9275C67.8931 14.6578 71.4975 8.097 77.7672 6.27352ZM17.7347 82.7213C50.1115 31.753 117.659 16.6714 168.606 49.0351C219.555 81.3992 234.61 148.953 202.233 199.921C189.107 220.584 161.717 226.696 141.06 213.574C120.402 200.451 114.296 173.061 127.421 152.398C133.548 142.754 130.694 129.977 121.063 123.859C111.433 117.742 98.6542 120.588 92.5278 130.232C76.0728 156.136 75.2531 187.516 87.635 213.327C90.4591 219.214 87.976 226.276 82.0889 229.1C76.2018 231.925 69.1399 229.441 66.3158 223.554C50.5551 190.699 51.5539 150.636 72.569 117.554C85.6949 96.8906 113.084 90.7779 133.742 103.9C154.4 117.023 160.506 144.413 147.38 165.076C141.254 174.721 144.108 187.497 153.739 193.615C163.369 199.733 176.148 196.887 182.274 187.242C207.654 147.29 195.846 94.3514 155.928 68.994C116.01 43.637 63.0728 55.4472 37.6936 95.3998C31.7316 104.785 26.9685 114.604 23.2922 124.672C21.0526 130.805 14.265 133.962 8.13159 131.722C1.99822 129.482 -1.15833 122.695 1.08125 116.561C5.31757 104.96 10.8229 93.602 17.7347 82.7213ZM138.475 96.4138C113.701 80.6769 80.8474 88.0062 65.0941 112.806C51.5758 134.086 45.7402 158.01 46.8012 181.417C47.0968 187.94 42.0488 193.467 35.526 193.763C29.0033 194.058 23.4758 189.01 23.1801 182.488C21.9072 154.406 28.921 125.652 45.1352 100.127C67.8853 64.3132 115.349 53.7105 151.153 76.4549C186.958 99.1991 197.531 146.669 174.781 182.482C171.28 187.994 163.974 189.623 158.462 186.122C152.951 182.621 151.321 175.315 154.822 169.804C170.575 145.004 163.247 112.15 138.475 96.4138ZM116.316 131.338C121.828 134.84 123.457 142.146 119.956 147.657C104.203 172.457 111.531 205.311 136.303 221.047C136.681 221.287 136.938 221.427 137.413 221.685C137.736 221.86 138.158 222.089 138.787 222.441C144.484 225.631 146.517 232.835 143.327 238.533C140.137 244.23 132.932 246.262 127.235 243.072C127.138 243.018 126.99 242.937 126.805 242.837C126.06 242.431 124.714 241.698 123.625 241.006C87.8201 218.262 77.2475 170.792 99.9974 134.979C103.498 129.467 110.805 127.837 116.316 131.338Z" fill="#1D7A85"/>
</svg>
