<svg width="60" height="60" viewBox="0 0 60 60" fill="none" xmlns="http://www.w3.org/2000/svg">
<path d="M15.3133 20.332L14.7233 19.2523C17.8294 14.4646 12.3629 11.9448 8.36816 14.3514C3.78191 16.7127 3.75423 22.5019 9.05654 22.346L25.117 51.7336C25.4271 52.3011 25.9398 52.7141 26.5604 52.8961C27.6583 53.3229 28.8981 52.4101 29.819 51.9235C30.9733 51.3227 31.4303 49.7672 30.7824 48.6379L25.6484 39.2436C17.0799 23.5646 22.5929 33.6526 15.3133 20.332ZM8.35889 20.7172C5.33362 20.278 6.54866 17.1517 9.14327 15.7672C11.1323 14.522 15.0972 14.7208 13.7268 17.7822C12.985 17.1587 11.909 17.0123 11.0092 17.5042L9.5925 18.2785C8.69162 18.7709 8.23387 19.7557 8.35889 20.7172ZM29.3662 49.4118C29.5814 49.7874 29.4304 50.3075 29.045 50.5065L27.6284 51.2813C27.2505 51.4948 26.7341 51.346 26.5333 50.9597L10.2235 21.1159C10.2099 21.0911 10.0453 20.7899 10.0453 20.7899C9.82993 20.4141 9.98125 19.8947 10.3664 19.6948L11.7831 18.9204C12.1666 18.7094 12.6637 18.8476 12.8782 19.2416L29.3662 49.4118Z" fill="#165C64"/>
<path d="M23.8217 11.8422C24.2674 11.8422 24.6287 11.4809 24.6287 11.0352V7.80704C24.6287 7.36135 24.2674 7 23.8217 7C23.376 7 23.0146 7.36135 23.0146 7.80704V11.0352C23.0146 11.4809 23.376 11.8422 23.8217 11.8422Z" fill="#165C64"/>
<path d="M18.2803 12.6202C18.8167 13.5331 20.201 12.7272 19.6784 11.8131L18.0644 9.01771C17.518 8.10768 16.1517 8.89684 16.6663 9.82475L18.2803 12.6202Z" fill="#165C64"/>
<path d="M28.2604 12.9158C28.6397 13.1363 29.1386 13.0097 29.363 12.6203L30.9771 9.8248C31.1997 9.43901 31.0677 8.94525 30.6815 8.72221C30.2946 8.49839 29.8016 8.63158 29.5789 9.01776L27.9649 11.8132C27.7422 12.199 27.8742 12.6928 28.2604 12.9158Z" fill="#165C64"/>
<path d="M20.5711 31.2314L25.4133 40.5124C26.4894 38.3603 30.2556 33.9535 33.4837 33.0081C36.6059 32.0938 38.7295 34.5489 40.3436 35.4293C44.7823 37.8504 47.6959 37.0076 50.0281 35.9711C53.6597 34.357 55.8679 31.8903 54.4668 28.9729C52.7019 25.2982 51.7813 23.5118 50.5181 21.306M20.5711 31.2314L15.3253 21.5469C16.4014 18.9913 20.9339 14.0427 25.4133 14.0427C29.045 14.0427 30.5912 16.5886 32.6767 17.0057C36.7119 17.8127 38.7295 17.2707 39.5365 16.8672C41.1506 16.0603 41.9576 14.8498 42.7647 14.0427C43.5717 13.2355 45.3473 12.5448 45.9929 13.6391C48.1878 17.36 49.4707 19.4772 50.5181 21.306M20.5711 31.2314C20.9746 28.3525 25.6155 22.8786 29.852 23.161C35.9048 23.5645 37.9224 25.9856 41.9576 25.9856C45.9929 25.9856 47.9167 24.5971 50.5181 21.306" stroke="#165C64" stroke-width="1.61408"/>
</svg>
