<svg width="60" height="60" viewBox="0 0 60 60" fill="none" xmlns="http://www.w3.org/2000/svg">
<path fill-rule="evenodd" clip-rule="evenodd" d="M31.7078 51.6114C31.2612 51.6114 30.8992 51.2494 30.8992 50.8028V38.1503C30.8992 37.5856 30.4399 37.1262 29.8752 37.1262C29.3106 37.1262 28.8512 37.5856 28.8512 38.1503V50.8028C28.8512 51.2494 28.4892 51.6114 28.0426 51.6114C27.596 51.6114 27.234 51.2494 27.234 50.8028V38.1503C27.234 36.6939 28.4188 35.509 29.8752 35.509C31.3316 35.509 32.5164 36.6939 32.5164 38.1503V50.8028C32.5164 51.2494 32.1543 51.6114 31.7078 51.6114Z" fill="#165C64"/>
<path fill-rule="evenodd" clip-rule="evenodd" d="M31.7077 11.2378C31.2611 11.2378 30.8991 10.8758 30.8991 10.4292V6.64114C30.8991 6.07652 30.4398 5.61715 29.8752 5.61715C29.6016 5.61715 29.3444 5.72363 29.1511 5.91699C28.9578 6.11046 28.8512 6.36773 28.8512 6.6411V10.4292C28.8512 10.8758 28.4892 11.2378 28.0426 11.2378C27.596 11.2378 27.234 10.8758 27.234 10.4292V6.64114C27.234 5.93613 27.5086 5.27294 28.0073 4.77382C28.5064 4.27469 29.1697 4 29.8752 4C31.3315 4 32.5163 5.18483 32.5163 6.64118V10.4292C32.5163 10.8758 32.1543 11.2378 31.7077 11.2378Z" fill="#165C64"/>
<path fill-rule="evenodd" clip-rule="evenodd" d="M29.8751 17.3977C27.5808 17.3977 25.7142 15.5311 25.7142 13.2368C25.7142 10.9425 27.5808 9.07593 29.8751 9.07593C32.1694 9.07593 34.0359 10.9425 34.0359 13.2368C34.0359 15.5311 32.1694 17.3977 29.8751 17.3977ZM29.8751 10.6931C28.4725 10.6931 27.3314 11.8342 27.3314 13.2368C27.3314 14.6394 28.4725 15.7805 29.8751 15.7805C31.2777 15.7805 32.4188 14.6394 32.4188 13.2368C32.4188 11.8342 31.2777 10.6931 29.8751 10.6931Z" fill="#165C64"/>
<path fill-rule="evenodd" clip-rule="evenodd" d="M11.8945 35.0788C9.80668 35.0788 7.83875 34.3664 6.35329 33.073C4.83598 31.7518 4.00037 29.9859 4.00037 28.1006C4.00037 27.654 4.36236 27.292 4.80896 27.292H18.9801C19.4267 27.292 19.7887 27.654 19.7887 28.1006C19.7887 29.9859 18.9531 31.7518 17.4358 33.073C15.9502 34.3664 13.9823 35.0788 11.8945 35.0788ZM5.68878 28.9092C6.1466 31.483 8.75511 33.4616 11.8945 33.4616C15.0338 33.4616 17.6424 31.483 18.1001 28.9092H5.68878Z" fill="#165C64"/>
<path fill-rule="evenodd" clip-rule="evenodd" d="M18.9803 28.9091C18.6687 28.9091 18.3718 28.728 18.239 28.4243L11.9505 14.0444H11.8381L5.54963 28.4243C5.37068 28.8335 4.89396 29.0201 4.48481 28.8412C4.07566 28.6622 3.88903 28.1855 4.06794 27.7763L10.5684 12.9118C10.6971 12.6175 10.9879 12.4272 11.3092 12.4272H12.4794C12.8008 12.4272 13.0915 12.6175 13.2203 12.9118L19.7207 27.7763C19.8996 28.1855 19.713 28.6622 19.3038 28.8412C19.1984 28.8873 19.0884 28.9091 18.9803 28.9091Z" fill="#165C64"/>
<path fill-rule="evenodd" clip-rule="evenodd" d="M47.856 35.0788C45.7681 35.0788 43.8002 34.3664 42.3147 33.073C40.7974 31.7518 39.9618 29.9859 39.9618 28.1006C39.9618 27.654 40.3238 27.292 40.7704 27.292H54.9415C55.3881 27.292 55.7501 27.654 55.7501 28.1006C55.7501 29.9859 54.9145 31.7518 53.3972 33.073C51.9117 34.3664 49.9438 35.0788 47.856 35.0788ZM41.6503 28.9092C42.1081 31.483 44.7166 33.4616 47.856 33.4616C50.9953 33.4616 53.6039 31.483 54.0616 28.9092H41.6503Z" fill="#165C64"/>
<path fill-rule="evenodd" clip-rule="evenodd" d="M54.9421 28.9091C54.6305 28.9091 54.3336 28.728 54.2008 28.4243L47.9124 14.0444H47.7999L41.5114 28.4243C41.3325 28.8335 40.8557 29.0201 40.4466 28.8412C40.0374 28.6622 39.8508 28.1855 40.0297 27.7763L46.5301 12.9118C46.6589 12.6175 46.9497 12.4272 47.271 12.4272H48.4413C48.7626 12.4272 49.0534 12.6175 49.1821 12.9118L55.6825 27.7763C55.8614 28.1855 55.6748 28.6622 55.2656 28.8412C55.1602 28.8873 55.0502 28.9091 54.9421 28.9091Z" fill="#165C64"/>
<path fill-rule="evenodd" clip-rule="evenodd" d="M40.5416 55.2765H19.2087C18.7621 55.2765 18.4001 54.9145 18.4001 54.4679C18.4001 52.0011 20.4071 49.9942 22.8739 49.9942L36.8763 49.9941C39.3432 49.9941 41.3501 52.0011 41.3501 54.4679C41.3502 54.9145 40.9881 55.2765 40.5416 55.2765ZM20.1339 53.6594H39.6165C39.2669 52.4767 38.1708 51.6114 36.8763 51.6114L22.8739 51.6113C21.5795 51.6113 20.4834 52.4767 20.1339 53.6594Z" fill="#165C64"/>
<path fill-rule="evenodd" clip-rule="evenodd" d="M29.8751 37.1265C29.4285 37.1265 29.0665 36.7646 29.0665 36.318V16.5894C29.0665 16.1428 29.4285 15.7808 29.8751 15.7808C30.3217 15.7808 30.6837 16.1428 30.6837 16.5894V36.318C30.6837 36.7645 30.3217 37.1265 29.8751 37.1265Z" fill="#165C64"/>
<path fill-rule="evenodd" clip-rule="evenodd" d="M47.2708 14.0444H33.2274C32.7808 14.0444 32.4188 13.6824 32.4188 13.2358C32.4188 12.7892 32.7808 12.4272 33.2274 12.4272H47.2708C47.7174 12.4272 48.0794 12.7892 48.0794 13.2358C48.0794 13.6824 47.7174 14.0444 47.2708 14.0444Z" fill="#165C64"/>
<path fill-rule="evenodd" clip-rule="evenodd" d="M26.5229 14.0444H12.4795C12.0329 14.0444 11.6709 13.6824 11.6709 13.2358C11.6709 12.7892 12.0329 12.4272 12.4795 12.4272H26.5229C26.9695 12.4272 27.3315 12.7892 27.3315 13.2358C27.3315 13.6824 26.9694 14.0444 26.5229 14.0444Z" fill="#165C64"/>
</svg>
