<svg width="1280" height="8" viewBox="0 0 1280 8" fill="none" xmlns="http://www.w3.org/2000/svg">
<path d="M1277.82 5.2526C1276.82 6.24768 1275.62 7.00547 1274.29 7.47065C1272.97 7.93583 1271.55 8.09754 1270.15 7.94341C1263.82 7.67983 16.0094 8.24032 9.79541 7.76427L5.48291 7.43671C4.31091 7.40799 3.15723 7.1099 2.11072 6.56414C1.5575 6.23853 -0.295898 4.75204 0.0405273 3.69207C0.545898 2.51123 1.44092 1.54774 2.57446 0.963144C3.30273 0.652446 4.10474 0.551149 4.89185 0.670916C5.10229 0.682967 5.31067 0.694279 5.51001 0.696496C7.54846 0.720786 9.58801 0.738727 11.6279 0.750791C17.4553 0.793542 1264.87 -0.21493 1270.79 0.0419546C1272.63 0.217601 1274.44 0.64119 1276.17 1.30205C1277.14 1.61679 1278.14 1.94181 1279.25 2.24347L1280 2.44566L1279.57 3.08933C1279.06 3.86738 1278.47 4.5923 1277.82 5.2526Z" fill="#F79F79"/>
</svg>
