<svg width="60" height="60" viewBox="0 0 60 60" fill="none" xmlns="http://www.w3.org/2000/svg">
<path d="M40.886 22.5137C41.1645 21.901 41.3193 21.2202 41.3193 20.5022C41.3193 17.7976 39.1159 15.5942 36.4113 15.5942C33.7066 15.5942 31.5033 17.7976 31.5033 20.5022C31.5033 21.2202 31.658 21.901 31.9365 22.5137C28.9967 24.1043 26.9976 27.2175 26.9976 30.7886C26.9976 32.2121 27.3256 33.1838 28.0002 33.7594C29.0585 34.6692 30.7296 34.4031 32.6544 34.0998C33.7932 33.9203 35.0806 33.7161 36.4113 33.7161C37.7419 33.7161 39.0293 33.9203 40.1619 34.0998C41.0964 34.2483 41.9691 34.3845 42.7366 34.3845C43.5659 34.3845 44.2715 34.2298 44.8223 33.7594C45.4969 33.1838 45.825 32.2121 45.825 30.7886C45.825 27.2175 43.8259 24.1043 40.886 22.5137ZM36.4113 16.8321C38.4351 16.8321 40.0814 18.4784 40.0814 20.5022C40.0814 21.0345 39.97 21.542 39.7658 22C39.5863 22.3961 39.3449 22.7489 39.0478 23.0522C38.3794 23.7454 37.4448 24.1724 36.4113 24.1724C35.3777 24.1724 34.4369 23.7392 33.7747 23.046C33.4776 22.7427 33.2362 22.3899 33.0567 22C32.8525 21.542 32.7411 21.0345 32.7411 20.5022C32.7411 18.4784 34.3874 16.8321 36.4113 16.8321ZM44.0177 32.8186C43.3864 33.3571 41.9815 33.1343 40.3538 32.8744C39.1778 32.6887 37.841 32.4782 36.4113 32.4782C34.9816 32.4782 33.6447 32.6887 32.4626 32.8744C30.8348 33.1343 29.4299 33.3571 28.7986 32.8186C28.4211 32.4906 28.2354 31.8284 28.2354 30.7886C28.2354 27.6631 29.9993 24.9337 32.5864 23.5659C33.4838 24.6923 34.864 25.4102 36.4113 25.4102C37.9585 25.4102 39.3387 24.6923 40.2362 23.5659C42.8232 24.9399 44.5871 27.6631 44.5871 30.7886C44.5871 31.8284 44.4015 32.4906 44.0177 32.8186Z" fill="#165C64"/>
<path d="M51.5623 22.823C51.1724 20.6444 50.3121 18.6268 49.0928 16.8691C49.9531 15.7674 49.8727 14.1706 48.8638 13.1556C48.3316 12.6233 47.626 12.3324 46.8709 12.3324C46.2396 12.3324 45.6393 12.5366 45.1504 12.9266C43.3926 11.7073 41.375 10.847 39.1964 10.4571C39.0231 9.07072 37.841 8 36.4113 8C34.9816 8 33.7994 9.07072 33.62 10.4571C31.4414 10.847 29.4237 11.7073 27.6722 12.9266C27.1832 12.5366 26.5829 12.3324 25.9454 12.3324C25.1965 12.3324 24.491 12.6233 23.9587 13.1556C22.9499 14.1706 22.8694 15.7674 23.7297 16.8691C22.5042 18.6268 21.6501 20.6444 21.254 22.823C19.8739 23.0025 18.8031 24.1846 18.8031 25.6081C18.8031 27.0316 19.8677 28.22 21.2478 28.3994C21.6378 30.5347 22.4733 32.5586 23.7111 34.341C17.7015 32.7442 12.0755 35.6222 9.85362 37.0024V36.5444C9.85362 36.204 9.5751 35.9255 9.2347 35.9255H5.11892C4.77851 35.9255 4.5 36.204 4.5 36.5444V52.1596C4.5 52.5 4.77851 52.7785 5.11892 52.7785H9.2347C9.5751 52.7785 9.85362 52.5 9.85362 52.1596V51.1693C11.469 51.1817 19.1745 51.2498 25.8464 51.6707C26.1682 51.6892 26.4839 51.7016 26.7995 51.7016C29.5908 51.7016 32.345 50.9342 34.833 49.4549L51.2467 38.921C52.0203 38.4568 52.5464 37.6584 52.6826 36.7239C52.8187 35.7645 52.534 34.8114 51.8903 34.1182C51.3333 33.5117 50.5721 33.2084 49.8108 33.2146C49.8108 33.2146 49.8108 33.2146 49.8108 33.2084C50.6649 31.7106 51.2529 30.0891 51.5499 28.3994C52.9363 28.22 54.007 27.0378 54.007 25.6081C54.007 24.1784 52.9363 23.0025 51.5499 22.823H51.5623ZM8.62198 51.5469H5.74402V37.1695H8.62198V51.5469ZM45.3855 14.641C45.4598 14.4182 45.5836 14.2077 45.7569 14.0344C45.8869 13.9045 46.0416 13.793 46.2087 13.7188C46.4129 13.6198 46.6357 13.5702 46.8709 13.5702C47.2918 13.5702 47.6879 13.7373 47.985 14.0344C48.4677 14.511 48.573 15.2289 48.3006 15.8107C48.2264 15.9778 48.1211 16.1264 47.985 16.2625C47.8117 16.4358 47.6013 16.5596 47.3723 16.6277C46.8214 16.8072 46.1778 16.6834 45.7569 16.2625C45.336 15.8417 45.1937 15.1918 45.3855 14.641ZM34.9321 10.2714C35.1487 9.66488 35.7305 9.23783 36.4113 9.23783C37.0921 9.23783 37.6677 9.66488 37.8843 10.2714C37.9462 10.4385 37.9833 10.6242 37.9833 10.8161C37.9833 11.0636 37.9214 11.2988 37.8224 11.5092C37.5625 12.0291 37.0302 12.3881 36.4113 12.3881C35.7924 12.3881 35.2539 12.0291 34.994 11.5092C34.8887 11.2988 34.833 11.0636 34.833 10.8161C34.833 10.6242 34.864 10.4385 34.9321 10.2714ZM24.8314 14.0344C25.1346 13.7373 25.5246 13.5702 25.9454 13.5702C26.1806 13.5702 26.4096 13.6198 26.6138 13.7188C26.781 13.7992 26.9295 13.9045 27.0657 14.0344C27.2389 14.2077 27.3627 14.4182 27.437 14.641C27.6289 15.1918 27.4989 15.8293 27.0657 16.2625C26.6324 16.6958 26.0011 16.8072 25.4503 16.6339C25.2213 16.5596 25.0047 16.4358 24.8314 16.2625C24.6952 16.1325 24.59 15.9778 24.5219 15.8169C24.2496 15.2351 24.3548 14.511 24.8314 14.0344ZM21.613 27.1864C21.4211 27.1864 21.2417 27.1554 21.0684 27.0873C20.468 26.8707 20.041 26.2889 20.041 25.6081C20.041 24.9273 20.468 24.3517 21.0684 24.1351C21.2417 24.0732 21.4211 24.0361 21.613 24.0361C21.8606 24.0361 22.0958 24.098 22.3062 24.197C22.8323 24.457 23.1912 24.9892 23.1912 25.6081C23.1912 26.2271 22.8323 26.7655 22.3062 27.0255C22.0958 27.1307 21.8606 27.1864 21.613 27.1864ZM50.9929 34.9599C51.3766 35.3746 51.5499 35.9564 51.4695 36.5444C51.389 37.1076 51.0796 37.5842 50.6092 37.8689L34.1956 48.4028C31.658 49.9129 28.8048 50.6185 25.933 50.439C19.224 50.0182 11.4752 49.9501 9.85981 49.9377V38.4878C11.2462 37.5532 18.2585 33.2022 25.0975 36.1235C25.1532 36.1483 25.2089 36.1606 25.2708 36.1854C25.2708 36.1854 25.2708 36.1854 25.277 36.1854H25.2894C26.4963 36.6743 27.7526 36.9281 29.04 36.9281H34.3565C35.4334 36.9281 36.3122 37.8998 36.3122 39.0881C36.3122 40.2764 35.4334 41.2481 34.3565 41.2481H21.3716C21.0312 41.2481 20.7527 41.5266 20.7527 41.867C20.7527 42.2074 21.0312 42.486 21.3716 42.486H34.3565C35.6562 42.486 36.7702 41.6566 37.2716 40.4683L49.1919 34.5948C49.8046 34.2915 50.5102 34.4339 50.9929 34.9538V34.9599ZM47.9479 33.8335L37.5439 38.9581C37.4758 37.1447 36.0771 35.6965 34.3565 35.6965H29.04C27.9569 35.6965 26.8985 35.486 25.8835 35.0961C24.132 33.1651 22.9622 30.8132 22.4857 28.288C23.6121 27.9167 24.4291 26.8583 24.4291 25.6081C24.4291 24.3579 23.6183 23.312 22.4919 22.9344C22.857 21.0096 23.6121 19.2209 24.6766 17.6551C25.0666 17.8593 25.4998 17.9645 25.9454 17.9645C26.7005 17.9645 27.4061 17.6675 27.9383 17.1352C28.483 16.5905 28.7615 15.8664 28.7615 15.1485C28.7615 14.709 28.6625 14.2758 28.4582 13.8797C30.0241 12.8152 31.8127 12.0601 33.7376 11.6949C34.1089 12.8152 35.1673 13.6259 36.4113 13.6259C37.6553 13.6259 38.7136 12.8152 39.085 11.6949C41.0098 12.0539 42.7923 12.8152 44.3581 13.8735C43.8259 14.9319 43.9992 16.2563 44.8842 17.1352C45.4165 17.6675 46.1221 17.9645 46.8709 17.9645C47.3227 17.9645 47.756 17.8593 48.1459 17.6551C49.2043 19.2209 49.9593 21.0096 50.3245 22.9344C49.2043 23.312 48.3935 24.3641 48.3935 25.6081C48.3935 26.8522 49.2104 27.9167 50.3307 28.288C49.9531 30.2748 49.1486 32.1563 47.9479 33.8335ZM51.748 27.0873C51.5809 27.1554 51.3952 27.1864 51.2033 27.1864C50.9558 27.1864 50.7206 27.1307 50.5102 27.0255C49.9903 26.7655 49.6313 26.2332 49.6313 25.6081C49.6313 24.983 49.9903 24.457 50.5102 24.197C50.7206 24.098 50.9558 24.0361 51.2033 24.0361C51.3952 24.0361 51.5809 24.0732 51.748 24.1351C52.3545 24.3517 52.7816 24.9335 52.7816 25.6081C52.7816 26.2828 52.3545 26.8707 51.748 27.0873Z" fill="#165C64"/>
</svg>
