<svg width="60" height="60" viewBox="0 0 60 60" fill="none" xmlns="http://www.w3.org/2000/svg">
<path d="M56.0479 17.0238C54.5574 14.414 52.293 12.3317 49.5678 11.0645C49.4627 11.0155 49.3469 10.9938 49.2311 11.0015C49.1154 11.0092 49.0035 11.0461 48.9058 11.1086L40.0588 16.7836C38.2236 17.5549 36.8057 17.3363 34.6701 17.0066C33.6509 16.8488 32.4975 16.6705 31.0917 16.5695C30.0989 16.4931 29.1014 16.6315 28.1669 16.9752C27.2324 17.3189 26.3829 17.8599 25.6762 18.5613L20.382 18.0271C19.2544 17.9263 18.1674 17.5561 17.2126 16.9478L9.57268 12.1994C9.47558 12.139 9.36493 12.1038 9.25078 12.097C9.13663 12.0902 9.02258 12.112 8.91899 12.1604C6.19192 13.4298 3.92742 15.5163 2.43951 18.1306C0.947444 20.7435 0.290961 23.7505 0.558289 26.7475C0.567515 26.8533 0.601174 26.9556 0.656615 27.0462C0.712057 27.1367 0.787768 27.2132 0.877789 27.2696L1.71744 27.7987C4.64279 29.6422 7.66782 31.5445 10.4577 33.558L9.8187 34.5651C9.38506 35.2468 9.23941 36.0726 9.4137 36.8615C9.58799 37.6504 10.068 38.338 10.7484 38.7735C11.2347 39.0848 11.7999 39.2503 12.3773 39.2502C12.4861 39.2502 12.5949 39.2445 12.7032 39.233C12.5956 39.8261 12.6677 40.4378 12.9103 40.9896C13.153 41.5414 13.555 42.008 14.0649 42.3296C14.5526 42.6373 15.1177 42.8001 15.6943 42.7993C15.8967 42.7988 16.0985 42.7787 16.2969 42.7392C16.2808 43.0193 16.3034 43.3004 16.364 43.5744C16.5126 44.2508 16.888 44.8561 17.4278 45.29C17.9677 45.7238 18.6396 45.9602 19.3322 45.9598C19.7422 45.9599 20.1481 45.8778 20.5259 45.7183C20.9037 45.5588 21.2457 45.3252 21.5316 45.0313C21.7663 45.5765 22.1556 46.0411 22.6514 46.3675C23.1473 46.6939 23.7279 46.8678 24.3215 46.8678C24.7729 46.8681 25.2187 46.7684 25.6269 46.5757C26.0351 46.383 26.3954 46.1021 26.682 45.7534L30.3799 48.1126C30.9939 48.5093 31.7083 48.7228 32.4394 48.7279C32.5994 48.7279 32.7594 48.7171 32.918 48.6953C33.3435 48.647 33.7531 48.5055 34.1176 48.2807C34.4821 48.0559 34.7925 47.7535 35.0267 47.395C35.4112 46.7851 35.5503 46.0521 35.4158 45.3438C35.7036 45.4158 35.9991 45.4527 36.2957 45.4537C36.4558 45.4537 36.6157 45.4428 36.7743 45.4211C37.1999 45.3727 37.6095 45.231 37.974 45.0062C38.3386 44.7813 38.6489 44.4787 38.883 44.1201C39.2771 43.4966 39.4145 42.7448 39.2664 42.0222C39.5209 42.0779 39.7805 42.1062 40.0409 42.1066C40.201 42.1066 40.3609 42.0957 40.5195 42.074C40.9451 42.0256 41.3547 41.884 41.7192 41.6591C42.0837 41.4342 42.3941 41.1316 42.6282 40.773C42.9825 40.226 43.1504 39.5791 43.1068 38.9288C43.4982 39.0656 43.9096 39.1364 44.3241 39.1384C44.5704 39.1389 44.8159 39.1125 45.0564 39.0598C45.436 38.9864 45.7965 38.8362 46.1159 38.6184C46.4353 38.4005 46.7068 38.1197 46.9137 37.7931C47.1205 37.4666 47.2585 37.1011 47.319 36.7193C47.3795 36.3375 47.3613 35.9473 47.2655 35.5728C47.0953 34.8582 46.7122 34.212 46.167 33.7197C46.6239 33.4053 47.0246 33.0909 47.415 32.7835C48.01 32.2822 48.6519 31.8394 49.332 31.4615C49.3505 31.4519 49.3691 31.441 49.3863 31.4301L57.616 26.1513C57.7045 26.0946 57.7788 26.0184 57.8332 25.9284C57.8876 25.8384 57.9207 25.7372 57.9298 25.6325C58.1977 22.638 57.5409 19.6334 56.0479 17.0238ZM1.90275 26.2919C1.74234 23.6938 2.34468 21.1055 3.63571 18.8452C4.92673 16.5849 6.85015 14.7511 9.16947 13.5694L13.2342 16.096C11.0023 17.3817 9.14501 19.2282 7.84642 21.4525C6.54782 23.6769 5.85297 26.202 5.83069 28.7776C4.70094 28.0524 3.56799 27.3386 2.44846 26.6338L1.90275 26.2919ZM11.4878 37.615C11.114 37.376 10.8503 36.9986 10.7545 36.5654C10.6586 36.1322 10.7385 35.6788 10.9766 35.3044L13.3511 31.5835C13.4689 31.3982 13.6224 31.2381 13.8026 31.1126C13.9829 30.9871 14.1863 30.8987 14.401 30.8525C14.5218 30.8254 14.6452 30.8116 14.769 30.8116C15.0681 30.8132 15.3614 30.8948 15.6182 31.0481C15.8751 31.2013 16.0863 31.4205 16.2297 31.683C16.3732 31.9454 16.4438 32.2415 16.4341 32.5404C16.4245 32.8394 16.335 33.1303 16.1749 33.3829L13.801 37.1045C13.5611 37.4772 13.1836 37.74 12.7509 37.8357C12.3181 37.9315 11.8651 37.8524 11.4903 37.6157L11.4878 37.615ZM14.7965 41.1666C14.6126 41.0508 14.4535 40.8997 14.3285 40.722C14.2034 40.5442 14.1149 40.3434 14.0681 40.1312C14.0212 39.919 14.017 39.6996 14.0556 39.4857C14.0942 39.2719 14.1749 39.0678 14.293 38.8854L18.2171 32.8327C18.3728 32.5941 18.5858 32.3982 18.8366 32.2628C19.0873 32.1274 19.368 32.0569 19.6529 32.0576C19.9722 32.0574 20.2851 32.1475 20.5552 32.3177C20.9 32.5346 21.1517 32.872 21.2614 33.2642C21.3712 33.6565 21.331 34.0755 21.1488 34.4398L20.1379 36.0188L17.1346 40.6516C16.8896 41.0265 16.5074 41.2904 16.0701 41.3867C15.6327 41.483 15.175 41.4039 14.7952 41.1666H14.7965ZM18.4388 44.3246C18.0671 44.0863 17.8047 43.7107 17.7089 43.2797C17.6132 42.8488 17.6918 42.3974 17.9276 42.0241L21.2996 36.7569L22.2121 35.3511C22.2581 35.2801 22.3003 35.2073 22.3399 35.1338L22.6224 34.6922C22.8627 34.3184 23.2411 34.0548 23.6751 33.959C24.1091 33.8632 24.5634 33.943 24.9388 34.181C25.3114 34.4194 25.5744 34.7957 25.6702 35.2276C25.7661 35.6595 25.6868 36.1117 25.45 36.4853L24.4339 38.0713C24.3235 38.1945 24.2232 38.3266 24.1343 38.4662L21.7597 42.1871C21.6796 42.313 21.6087 42.4445 21.5476 42.5807L20.7552 43.8178C20.514 44.1919 20.1345 44.4552 19.6997 44.5502C19.2649 44.6451 18.8102 44.564 18.435 44.3246H18.4388ZM23.4288 45.2319C23.1043 45.0233 22.8612 44.7095 22.7404 44.3431C22.6195 43.9767 22.6282 43.5799 22.7649 43.2191L25.5164 38.9212C25.7419 38.6961 26.0274 38.5408 26.3388 38.4739C26.4596 38.4467 26.5831 38.433 26.7069 38.433C27.024 38.4323 27.3346 38.523 27.6015 38.6943C27.9753 38.9331 28.2391 39.3104 28.335 39.7435C28.4308 40.1767 28.3509 40.6301 28.1127 41.0043L25.9145 44.4498L25.7407 44.7226C25.6222 44.9083 25.4683 45.0687 25.2877 45.1948C25.1071 45.3208 24.9035 45.4101 24.6884 45.4574C24.4733 45.5047 24.251 45.5091 24.0342 45.4704C23.8175 45.4317 23.6104 45.3507 23.425 45.2319H23.4288ZM45.7434 37.0642C45.6302 37.2329 45.4847 37.3774 45.3154 37.4896C45.146 37.6018 44.9562 37.6794 44.7568 37.7179C44.1462 37.836 43.5137 37.7088 42.9963 37.3639L36.5226 33.1989C36.3694 33.1064 36.1861 33.0772 36.0118 33.1176C35.8374 33.1581 35.6857 33.2649 35.5889 33.4154C35.492 33.5659 35.4577 33.7482 35.4931 33.9237C35.5286 34.0991 35.6311 34.2538 35.7788 34.3549L40.7726 37.5671C41.2207 37.8285 41.549 38.2545 41.6876 38.7544C41.7393 38.9715 41.746 39.1969 41.7074 39.4166C41.6687 39.6364 41.5854 39.846 41.4627 40.0324C41.3345 40.2219 41.1663 40.381 40.9698 40.4982C40.7734 40.6155 40.5536 40.6881 40.3259 40.711C39.7605 40.7788 39.1893 40.6441 38.7137 40.3308L34.3372 37.5384C34.1836 37.4403 33.9973 37.4073 33.8193 37.4466C33.6414 37.4859 33.4863 37.5943 33.3883 37.7479C33.2902 37.9016 33.2572 38.0879 33.2965 38.2658C33.3358 38.4438 33.4442 38.5988 33.5979 38.6969L36.8325 40.7602C37.3163 41.06 37.6785 41.5213 37.8549 42.0625C37.9362 42.2775 37.9661 42.5084 37.9424 42.737C37.9187 42.9656 37.842 43.1855 37.7183 43.3793C37.5946 43.573 37.4275 43.7352 37.2301 43.8529C37.0327 43.9706 36.8106 44.0407 36.5814 44.0574C36.0159 44.1257 35.4446 43.991 34.9692 43.6772L32.0387 41.8082C31.9627 41.757 31.8772 41.7215 31.7873 41.7039C31.6974 41.6863 31.6048 41.6868 31.5151 41.7055C31.4254 41.7241 31.3403 41.7606 31.2649 41.8126C31.1895 41.8647 31.1252 41.9313 31.0759 42.0085C31.0267 42.0858 30.9933 42.1721 30.9779 42.2624C30.9625 42.3528 30.9653 42.4453 30.9862 42.5345C31.0071 42.6237 31.0456 42.7079 31.0995 42.782C31.1534 42.8561 31.2216 42.9187 31.3 42.966L32.9742 44.0344C33.458 44.334 33.8202 44.7951 33.9966 45.3361C34.0779 45.5511 34.1078 45.7821 34.0841 46.0107C34.0604 46.2394 33.9836 46.4593 33.86 46.6531C33.7363 46.8468 33.5692 47.0091 33.3718 47.1269C33.1744 47.2447 32.9523 47.3148 32.7231 47.3317C32.1578 47.3999 31.5867 47.2651 31.1115 46.9515L27.4321 44.6038L29.2616 41.7366C29.6948 41.056 29.8408 40.2316 29.6678 39.4437C29.4948 38.6557 29.0167 37.9684 28.3382 37.532C27.8497 37.2191 27.2813 37.0538 26.7011 37.0559C27.0753 36.3783 27.1775 35.5837 26.9867 34.8335C26.796 34.0833 26.3267 33.4339 25.6742 33.0174C25.2158 32.7266 24.6882 32.5632 24.1456 32.5439C23.6031 32.5246 23.0652 32.6501 22.5872 32.9075C22.3899 32.1803 21.9253 31.5545 21.2862 31.1554C20.7248 30.8054 20.066 30.6445 19.4065 30.6964C18.7469 30.7483 18.1214 31.0101 17.6215 31.4436C17.4271 30.9094 17.0872 30.4403 16.6402 30.0892C16.1931 29.7381 15.6568 29.519 15.0918 29.4567C14.5268 29.3944 13.9556 29.4914 13.4429 29.7367C12.9301 29.982 12.4961 30.3658 12.19 30.8448L11.1989 32.4001C9.90944 31.4723 8.57904 30.5681 7.22947 29.685C7.07481 27.0732 7.68866 24.4733 8.99519 22.2065C10.3017 19.9397 12.2437 18.1053 14.5812 16.9299L16.4867 18.1146C17.6205 18.8316 18.9082 19.2695 20.244 19.3926L24.4915 19.8208C23.6593 20.8743 22.8911 21.9769 22.1911 23.1225C21.4516 24.3592 20.614 25.5345 19.6862 26.637C19.1245 27.2613 19.2836 28.216 20.083 29.0134C20.4515 29.4411 20.9056 29.7868 21.416 30.0282C21.9263 30.2695 22.4816 30.4012 23.046 30.4148C24.8218 30.3509 26.1823 28.7891 27.4973 27.2773C28.5299 26.0906 29.5971 24.8644 30.5428 24.8644C30.5601 24.8644 30.5779 24.8644 30.5952 24.8644C31.2176 25.1135 31.7837 25.4851 32.2598 25.9571C33.0373 26.6652 33.9292 27.2365 34.8976 27.6466L44.836 34.4341L44.8609 34.4501C45.1229 34.6066 45.3516 34.8132 45.5337 35.0582C45.7158 35.3031 45.8478 35.5816 45.9223 35.8776C45.9729 36.0773 45.9831 36.2852 45.9524 36.4889C45.9217 36.6927 45.8506 36.8883 45.7434 37.0642ZM48.67 30.2582C47.9227 30.6714 47.2166 31.155 46.5613 31.7024C46.0524 32.1167 45.5213 32.5028 44.9702 32.8589L38.8268 28.6652C39.8432 28.793 40.8753 28.698 41.8512 28.3866C41.9355 28.3544 42.0126 28.3059 42.0782 28.2439C42.1438 28.1819 42.1965 28.1076 42.2333 28.0253C42.2702 27.9429 42.2904 27.8541 42.2929 27.7639C42.2955 27.6737 42.2802 27.5839 42.248 27.4996C42.2158 27.4153 42.1674 27.3382 42.1054 27.2727C42.0434 27.2071 41.9691 27.1544 41.8867 27.1175C41.8044 27.0807 41.7156 27.0604 41.6254 27.0579C41.5352 27.0554 41.4454 27.0706 41.3611 27.1028C40.062 27.598 37.591 27.3143 35.5123 26.4133C35.4963 26.4063 35.4804 26.3986 35.4638 26.3929C34.6349 26.0451 33.8707 25.5601 33.203 24.9583C33.1883 24.9443 31.6732 23.5417 30.6649 23.4931C29.0354 23.4145 27.7286 24.92 26.4621 26.375C25.3394 27.6658 24.1783 29 22.9994 29.0416C22.624 29.0178 22.2575 28.9169 21.9228 28.7452C21.5881 28.5735 21.2925 28.3346 21.0543 28.0434C20.9024 27.9052 20.7905 27.7286 20.7303 27.5322C21.699 26.3793 22.575 25.1515 23.3502 23.8605C24.2018 22.405 25.2058 21.0441 26.3452 19.8009C26.3711 19.7797 26.3953 19.7564 26.4174 19.7313C26.9975 19.109 27.7097 18.6247 28.5018 18.3141C29.2938 18.0036 30.1455 17.8747 30.9939 17.937C32.3429 18.0341 33.4682 18.2079 34.4618 18.3613C36.6791 18.7031 38.43 18.9741 40.6531 18.022C40.6879 18.0068 40.7214 17.9888 40.7534 17.9683L44.0123 15.8781C46.3547 17.0284 48.2977 18.8554 49.5898 21.1226C50.8819 23.3898 51.4635 25.9927 51.2592 28.5942L48.67 30.2582ZM56.5866 25.1801L52.6612 27.6977C52.6893 25.1236 52.0247 22.5893 50.7372 20.3601C49.4497 18.1309 47.5865 16.2889 45.3427 15.027L49.3237 12.471C51.6569 13.6319 53.5927 15.4596 54.8857 17.7222C56.1788 19.9849 56.7707 22.5805 56.5866 25.1801Z" fill="#165C64"/>
</svg>
