<svg width="64" height="16" viewBox="0 0 64 16" fill="none" xmlns="http://www.w3.org/2000/svg">
<path d="M53.2104 1.91646C50.9784 1.32746 48.6872 1.01976 46.39 1C38.3724 1.30352 30.2412 1.84013 22.3774 2.35922C19.5204 2.54781 16.6643 2.73257 13.8086 2.91398C13.6154 2.92484 13.408 2.9177 13.1991 2.91963C12.4209 2.81489 11.6389 2.99808 11.0015 3.43369C10.5903 3.81133 10.1257 4.19091 9.65386 4.57676C8.00184 5.92843 6.29356 7.32717 6.06675 9.10247C5.95863 9.66566 5.98207 10.2484 6.13554 10.8063C6.28781 11.3645 6.56654 11.8835 6.95056 12.3244C7.67395 12.951 8.52205 13.4215 9.43626 13.7045C10.3522 13.9878 11.3137 14.0772 12.2584 13.967L12.4689 13.9651C15.6009 13.8959 18.7342 13.8637 21.8689 13.8301C28.9783 13.7534 36.3328 13.676 43.538 13.1832C48.5338 12.843 54.1092 11.4593 57.5764 3.78308L58 2.84553L56.9623 2.67063C55.6214 2.44004 54.3807 2.17153 53.2104 1.91646Z" fill="#F79F79"/>
</svg>
