<svg width="52" height="14" viewBox="0 0 52 14" fill="none" xmlns="http://www.w3.org/2000/svg">
<path d="M47.2104 0.916458C44.9784 0.327464 42.6872 0.0197557 40.39 0C32.3724 0.303523 24.2412 0.840126 16.3774 1.35922C13.5204 1.54781 10.6643 1.73257 7.80856 1.91398C7.61539 1.92484 7.40798 1.9177 7.19906 1.91963C6.42089 1.81489 5.63887 1.99808 5.00155 2.43369C4.59026 2.81133 4.1257 3.19091 3.65386 3.57676C2.00184 4.92843 0.293558 6.32717 0.0667544 8.10247C-0.0413727 8.66566 -0.0179324 9.24842 0.135536 9.80627C0.287805 10.3645 0.566536 10.8835 0.950563 11.3244C1.67395 11.951 2.52205 12.4215 3.43626 12.7045C4.35217 12.9878 5.31375 13.0772 6.25835 12.967L6.46891 12.9651C9.60092 12.8959 12.7342 12.8637 15.8689 12.8301C22.9783 12.7534 30.3328 12.676 37.538 12.1832C42.5338 11.843 48.1092 10.4593 51.5764 2.78308L52 1.84553L50.9623 1.67063C49.6214 1.44004 48.3807 1.17153 47.2104 0.916458Z" fill="#F79F79"/>
</svg>
