<svg width="64" height="16" viewBox="0 0 64 16" fill="none" xmlns="http://www.w3.org/2000/svg">
<path d="M8.94002 10.1944C10.2797 11.6288 11.9004 12.7212 13.6856 13.3918C15.4708 14.0623 17.3763 14.2954 19.2647 14.0733C27.7896 13.6933 36.4407 12.9819 44.8089 12.2957L50.6167 11.8235C52.1949 11.7821 53.7486 11.3524 55.1579 10.5657C55.9029 10.0963 58.3985 7.9535 57.9454 6.42553C57.2649 4.72333 56.0599 3.33444 54.5334 2.49174C53.5525 2.04386 52.4726 1.89784 51.4125 2.07049C51.1291 2.08786 50.8484 2.10417 50.5799 2.10736C47.8348 2.14238 45.0884 2.16824 42.3413 2.18563C34.4937 2.24726 26.3807 2.31288 18.4017 2.68319C15.9257 2.93638 13.4881 3.547 11.1547 4.49964C9.85058 4.95334 8.50302 5.42186 7.00837 5.85671L6 6.14818L6.57982 7.07603C7.26924 8.19761 8.06021 9.24258 8.94002 10.1944Z" fill="#F79F79"/>
</svg>
