<svg xmlns="http://www.w3.org/2000/svg" width="308" height="8" viewBox="0 0 308 8" fill="none">
  <path d="M0.982131 5.39335C1.42965 6.33746 1.97107 7.05642 2.56742 7.49777C3.16378 7.93912 3.80034 8.09254 4.43115 7.94631C7.27896 7.69623 300.798 7.22801 303.593 6.77634L305.534 6.46557C306.061 6.43832 306.58 6.1555 307.051 5.6377C307.299 5.32877 308.133 3.91843 307.982 2.91277C307.754 1.79242 307.352 0.878293 306.842 0.323652C306.514 0.0288708 306.154 -0.0672374 305.799 0.0463947C305.705 0.0578279 305.611 0.0685605 305.521 0.0706634C304.604 0.0937093 303.687 0.110731 302.769 0.122177C300.148 0.162738 6.80831 0.205931 4.14288 0.449655C3.31573 0.616303 2.50146 1.01819 1.72195 1.6452C1.28631 1.94381 0.836151 2.25218 0.336852 2.53839L0 2.73022L0.193693 3.34091C0.423997 4.0791 0.688228 4.76688 0.982131 5.39335Z" fill="#F79F79"/>
</svg>